<svg width="20" height="20" viewBox="0 0 20 20" fill="none" xmlns="http://www.w3.org/2000/svg">
<path d="M7.33123 17.2969C7.33123 17.7917 7.1587 18.2116 6.81365 18.5566C6.4686 18.9017 6.04868 19.0742 5.55389 19.0742C5.07212 19.0742 4.65871 18.9017 4.31365 18.5566C3.9686 18.2116 3.79607 17.7917 3.79607 17.2969C3.79607 16.8151 3.9686 16.4017 4.31365 16.0566C4.65871 15.7116 5.07212 15.5391 5.55389 15.5391C6.04868 15.5391 6.4686 15.7116 6.81365 16.0566C7.1587 16.4017 7.33123 16.8151 7.33123 17.2969ZM13.2297 17.2969C13.2297 17.7917 13.0571 18.2116 12.7121 18.5566C12.367 18.9017 11.9536 19.0742 11.4719 19.0742C10.9771 19.0742 10.5571 18.9017 10.2121 18.5566C9.86704 18.2116 9.69451 17.7917 9.69451 17.2969C9.69451 16.8151 9.86704 16.4017 10.2121 16.0566C10.5571 15.7116 10.9771 15.5391 11.4719 15.5391C11.9536 15.5391 12.367 15.7116 12.7121 16.0566C13.0571 16.4017 13.2297 16.8151 13.2297 17.2969ZM4.03045 11.8281L2.60467 6.47656H11.9406C12.2271 6.47656 12.4679 6.37891 12.6633 6.18359C12.8586 5.98828 12.9562 5.7474 12.9562 5.46094C12.9562 5.1875 12.8586 4.94987 12.6633 4.74805C12.4679 4.54622 12.2271 4.44531 11.9406 4.44531H1.27654C0.938002 4.44531 0.66782 4.57878 0.465997 4.8457C0.264174 5.11263 0.208835 5.40885 0.299981 5.73438L2.27264 13.1172C2.32472 13.3385 2.44191 13.5176 2.6242 13.6543C2.80649 13.791 3.01482 13.8594 3.2492 13.8594H13.6594C13.8937 13.8594 14.1021 13.791 14.2844 13.6543C14.4666 13.5176 14.5838 13.332 14.6359 13.0977L17.4289 2.53125H18.4055C18.6919 2.53125 18.9328 2.43359 19.1281 2.23828C19.3234 2.04297 19.4211 1.80208 19.4211 1.51562C19.4211 1.24219 19.3234 1.00456 19.1281 0.802734C18.9328 0.600912 18.6919 0.5 18.4055 0.5H16.6281C16.3937 0.5 16.1854 0.571615 16.0031 0.714844C15.8208 0.858072 15.7036 1.04037 15.6515 1.26172L12.8781 11.8281H4.03045Z" fill="#25A541"/>
</svg>
