<svg width="122" height="49" viewBox="0 0 122 49" fill="none" xmlns="http://www.w3.org/2000/svg">
<mask id="mask0_1_24" style="mask-type:luminance" maskUnits="userSpaceOnUse" x="0" y="0" width="122" height="49">
<path d="M0 0H122V48.9515H0V0Z" fill="white"/>
</mask>
<g mask="url(#mask0_1_24)">
<path d="M115.498 3.29006C115.498 2.6846 115.631 2.14678 115.9 1.67788C116.166 1.13941 116.568 0.804479 117.107 0.46826C117.643 0.199671 118.177 0 118.716 0C119.318 0 119.853 0.133328 120.325 0.401918C120.861 0.671151 121.196 1.07307 121.532 1.61218C121.798 2.14678 122.001 2.68525 122.001 3.22049C122.001 3.75509 121.864 4.29678 121.598 4.83203C121.329 5.30415 120.927 5.70607 120.392 6.04229C119.853 6.31088 119.318 6.51055 118.716 6.51055C118.114 6.51055 117.576 6.37722 117.037 6.04229C116.502 5.77306 116.166 5.37114 115.831 4.83203C115.631 4.36377 115.498 3.8253 115.498 3.2907V3.29006ZM115.967 3.29006C115.967 3.75832 116.099 4.22658 116.369 4.69934C116.635 5.1676 116.97 5.50318 117.373 5.70607C117.775 5.9753 118.244 6.10799 118.782 6.10799C119.251 6.10799 119.719 5.9753 120.189 5.70607C120.657 5.43684 120.927 5.10126 121.196 4.69934C121.462 4.29678 121.598 3.8253 121.598 3.29006C121.598 2.81858 121.462 2.34967 121.196 1.87755C120.93 1.47833 120.588 1.13573 120.189 0.869533C119.786 0.604165 119.318 0.467616 118.782 0.467616C118.314 0.467616 117.841 0.604165 117.373 0.869533C116.974 1.13459 116.632 1.47717 116.369 1.8769C116.099 2.28269 115.967 2.75159 115.967 3.29006Z" fill="#0F6E3A"/>
<path d="M117.598 4.75989V1.58964H118.741C118.915 1.58964 119.065 1.60252 119.193 1.62828C119.32 1.65405 119.435 1.69913 119.538 1.76225C119.641 1.82473 119.719 1.91491 119.771 2.03213C119.823 2.14807 119.849 2.29299 119.849 2.46368C119.849 2.63565 119.796 2.80054 119.69 2.93709C119.584 3.07428 119.424 3.16639 119.211 3.21405C119.401 3.32033 119.541 3.48522 119.631 3.71065L120.06 4.75796H119.461L119.098 3.815C119.038 3.66041 118.973 3.55478 118.904 3.49939C118.834 3.44464 118.729 3.41694 118.588 3.41694H118.151V4.75796H117.598V4.75989ZM118.144 2.95062H118.673C119.068 2.95062 119.265 2.79797 119.265 2.49137C119.265 2.32455 119.223 2.21119 119.141 2.15258C119.058 2.09397 118.922 2.06434 118.732 2.06434H118.144V2.95062Z" fill="#11703B"/>
<path d="M105.648 30.9631C105.112 30.9631 104.711 31.0295 104.375 31.0964C104.039 31.1628 103.704 31.2993 103.504 31.4984C103.232 31.7067 103.023 31.9862 102.899 32.3061C102.738 32.7212 102.603 33.1463 102.497 33.5788L102.231 34.8548L100.552 42.5079C100.552 42.5743 100.552 42.6413 100.486 42.7108C100.353 43.1791 100.15 43.5153 99.9506 43.7176C99.6813 43.9172 99.2794 43.9836 98.8105 43.9836H96.7333C96.667 43.9836 96.5304 43.9836 96.3971 43.9172C96.0609 43.7839 95.7955 43.5153 95.5926 43.0464C95.5096 42.8787 95.4641 42.695 95.4593 42.5079L94.7881 37.9419C94.7218 37.54 94.7218 37.2038 94.7881 37.0054C94.7881 37.0054 94.7881 36.9358 94.8545 36.9358C94.9202 36.8695 94.9202 36.8025 94.991 36.7362L95.0567 36.6705C95.0567 36.6705 95.1231 36.6705 95.1231 36.6003C95.3227 36.4676 95.5919 36.4676 95.9939 36.4676H100.352L100.621 34.9926H93.5141C92.3071 34.9926 91.8388 35.5935 92.0385 36.8695L92.9795 43.1804C92.9795 43.4496 93.0458 43.6486 93.1785 43.9185C93.3814 44.457 93.7144 44.8589 94.1157 45.0618C94.5182 45.2615 95.0567 45.3278 95.592 45.3278H100.083C100.621 45.3278 101.024 45.2615 101.355 45.1945C101.692 45.1281 102.026 44.9916 102.229 44.7926C102.495 44.5897 102.698 44.3204 102.832 43.9849C102.964 43.6486 103.1 43.2467 103.234 42.7121L103.436 41.6358L105.112 33.5801C105.245 33.1118 105.448 32.7762 105.647 32.6436C105.916 32.4407 106.319 32.3743 106.787 32.3743H108.462C108.596 32.3743 108.732 32.3743 108.931 32.4407C109.068 32.507 109.267 32.574 109.399 32.6436L109.736 30.8948L105.646 30.9644L105.648 30.9631ZM97.2679 47.6755C97.2746 47.8469 97.2466 48.0178 97.1856 48.1781C97.1247 48.3384 97.0319 48.4847 96.9131 48.6083C96.7942 48.7319 96.6516 48.8302 96.4938 48.8974C96.336 48.9646 96.1663 48.9992 95.9948 48.9992C95.8234 48.9992 95.6536 48.9646 95.4959 48.8974C95.3381 48.8302 95.1955 48.7319 95.0766 48.6083C94.9577 48.4847 94.865 48.3384 94.804 48.1781C94.7431 48.0178 94.7151 47.8469 94.7218 47.6755C94.7293 47.3429 94.8667 47.0263 95.1046 46.7937C95.3425 46.5611 95.6621 46.4308 95.9948 46.4308C96.3276 46.4308 96.6471 46.5611 96.8851 46.7937C97.123 47.0263 97.2604 47.3429 97.2679 47.6755ZM101.56 47.6755C101.564 47.8452 101.534 48.014 101.472 48.1719C101.41 48.3299 101.317 48.4739 101.198 48.5955C101.08 48.717 100.938 48.8137 100.782 48.8798C100.626 48.9459 100.458 48.9801 100.288 48.9804C100.118 48.9807 99.9504 48.9471 99.7938 48.8815C99.6373 48.816 99.4954 48.7198 99.3765 48.5987C99.2577 48.4775 99.1642 48.3339 99.1016 48.1761C99.039 48.0184 99.0086 47.8497 99.0121 47.68C99.019 47.3472 99.1559 47.0302 99.3935 46.797C99.6312 46.5638 99.9507 46.4329 100.284 46.4323C100.617 46.4317 100.937 46.5615 101.175 46.7939C101.413 47.0262 101.551 47.3427 101.56 47.6755Z" fill="#EE4523"/>
<path d="M111.815 35.0576L110.205 42.7772C110.14 43.1791 109.94 43.4483 109.67 43.7176C109.401 43.9836 109.068 44.0538 108.666 44.0538C108.33 44.0538 108.061 43.9842 107.861 43.7845C107.662 43.5849 107.526 43.3826 107.526 43.0464V42.9099C107.526 42.8661 107.548 42.8216 107.592 42.7772L109.201 35.0576H106.252V36.264L104.643 43.9172C104.643 43.9836 104.643 44.0538 104.574 44.1201V44.3198C104.574 44.6547 104.71 44.9239 104.909 45.1268C105.179 45.3265 105.515 45.3961 105.917 45.3961H108.331C108.667 45.3961 109.334 45.2595 109.737 44.6547L109.472 45.93C109.334 46.5355 109.135 46.9374 108.866 47.1403C108.597 47.34 108.195 47.4095 107.726 47.4095H105.18C105.047 47.4095 104.844 47.4095 104.712 47.3393C104.575 47.2736 104.376 47.2066 104.243 47.1396L103.907 48.8852H108.933C109.361 48.885 109.788 48.8401 110.207 48.7512C110.542 48.6816 110.878 48.5489 111.081 48.3454C111.346 48.1464 111.549 47.8778 111.682 47.5416C111.816 47.206 111.951 46.8034 112.085 46.2663L114.431 35.057L111.815 35.0576ZM65.7612 45.4618L67.7057 36.3993V35.7951C67.7057 35.5922 67.7057 35.3262 67.6394 35.124H70.5217L70.3884 36.3336L71.3925 35.5259C71.5954 35.3926 71.7287 35.2567 71.9278 35.1897C72.0643 35.124 72.264 35.057 72.4669 35.057H73.5367C73.8729 35.057 74.0758 35.1233 74.2085 35.2567C74.3418 35.3926 74.4114 35.5253 74.4114 35.6618L72.5996 37.6759V37.5394C72.5996 36.9339 72.2633 36.599 71.5954 36.599C71.2592 36.599 70.9243 36.7349 70.6544 36.9339C70.3793 37.1539 70.1898 37.4631 70.1185 37.8079L68.5095 45.3246H65.7605L65.7612 45.4618ZM76.153 45.4618C75.0793 45.4618 74.2749 45.1932 73.8059 44.5884C73.3377 43.9829 73.0678 43.1791 73.0678 42.1717C73.0678 41.5669 73.1342 40.8964 73.337 40.0256C73.5361 39.0182 73.8053 38.2105 74.1415 37.5394C74.4341 36.9454 74.8189 36.4014 75.2816 35.9278C75.7498 35.5259 76.2181 35.2567 76.8236 35.1233C77.4251 34.9907 78.0963 34.8548 78.8351 34.8548C79.9049 34.8548 80.6431 35.0576 81.1783 35.5259C81.7168 35.9974 81.9828 36.7355 81.9828 37.8086C81.9828 38.414 81.9164 39.1509 81.7168 40.0256H76.0861C75.9495 40.5602 75.8832 41.0323 75.8168 41.4349C75.7505 41.8368 75.7505 42.2387 75.7505 42.5743C75.7505 43.1791 75.8838 43.6473 76.2187 43.9836C76.488 44.2522 77.0896 44.455 77.894 44.455C78.2966 44.455 79.0341 44.3887 80.0415 44.2522V45.4618H76.153ZM79.304 38.6826C79.3703 38.4134 79.3703 38.2105 79.4373 37.9413C79.5036 37.6753 79.5036 37.473 79.5036 37.2701C79.5036 36.8682 79.4373 36.532 79.2376 36.2634C79.1011 35.9974 78.7662 35.8608 78.3636 35.8608C77.8953 35.8608 77.4928 36.1301 77.1566 36.599C76.8242 37.0705 76.555 37.8086 76.4223 38.6826H79.304ZM91.0349 37.4737C91.1013 37.2044 91.1013 37.0054 91.1013 36.8025C91.1013 35.6631 90.3632 35.1246 88.8901 35.1246H84.4658V36.6705C84.8893 36.4903 85.3452 36.3987 85.8055 36.4012H86.9456C87.4808 36.4012 87.8157 36.4676 88.0154 36.6698C88.2183 36.8032 88.3516 37.0724 88.3516 37.408V37.6076C88.3516 37.6772 88.3516 37.7442 88.2853 37.8105L88.152 38.4153C87.3681 38.4204 86.585 38.4647 85.8055 38.548C85.1506 38.6053 84.5129 38.7883 83.9273 39.0871C83.3914 39.3557 82.9232 39.7583 82.5206 40.2265C82.1187 40.698 81.8495 41.3698 81.7161 42.1073C81.5796 42.7785 81.5132 43.3833 81.5132 43.8515C81.5132 44.5227 81.7161 44.9916 82.0523 45.1938C82.3847 45.3967 82.9895 45.53 83.7276 45.53H85.3366C85.3366 45.53 86.4071 45.5957 86.8792 44.7919L86.7427 45.5294H89.7603C89.6939 45.3967 89.6237 45.2608 89.6237 45.1275C89.6237 44.9942 89.5574 44.8589 89.5574 44.7256C89.5574 44.5922 89.5574 44.3893 89.6237 44.1201L91.0337 37.4743L91.0349 37.4737ZM87.2818 42.5079C87.2122 42.9105 87.0125 43.2461 86.7433 43.581C86.4773 43.9172 86.0754 44.0531 85.4699 44.0531C85.2007 44.0531 84.9347 43.9836 84.7318 43.8502C84.5321 43.7169 84.4658 43.4483 84.4658 43.1121V42.9092C84.4658 42.8435 84.4658 42.7765 84.5321 42.7095L84.7981 41.3679C84.9347 40.6265 85.3366 40.0919 85.8718 39.822C86.4767 39.5535 87.1446 39.4201 87.9491 39.4201L87.2811 42.5073L87.2818 42.5079ZM64.2855 43.2461H48.8014L49.3373 44.522H63.9525L64.2855 43.2461ZM65.0237 39.757H47.3258L47.8649 41.0323H64.6874L65.0237 39.757ZM65.7612 36.264H45.9197L46.4543 37.5394H65.4919C65.4262 37.6063 65.6948 36.4006 65.7612 36.264Z" fill="#EE4523"/>
<path d="M20.579 9.21318C18.9043 7.13275 16.4902 5.85743 13.4726 5.52121C12.871 5.45487 12.2656 5.38466 11.4611 5.38466H10.1877L7.03678 5.52121H1.80863L0 5.45487L0.199671 6.9962V9.21318L0.336219 12.6366V23.9154L0.199671 28.2785L0 30.1567L1.87433 30.024H3.88585L6.77141 30.1567L11.0598 30.024H11.4617C13.0707 29.9577 14.6127 29.6214 15.9524 28.9503C17.428 28.2798 18.7014 27.2724 19.8421 25.9965C21.9857 23.5102 23.0594 20.4894 23.0594 16.934C23.1257 13.9132 22.2549 11.3613 20.5796 9.21447L20.579 9.21318ZM11.5287 27.74C10.6065 27.9597 9.66204 28.0726 8.71401 28.0763H5.56501V23.2442L5.49545 17.9401L5.56501 12.6366V7.46896H8.44735C9.45086 7.46896 10.5246 7.53531 11.5287 7.80454C14.8162 8.60902 17.4957 11.025 17.4957 17.133C17.4957 23.2404 15.2851 26.7333 11.5287 27.74ZM71.5259 5.52121C70.5887 5.72088 69.448 5.72088 68.4439 5.65454C65.6291 11.2936 62.9458 16.9333 60.1968 22.5022L52.1527 5.58755C51.149 5.65376 50.142 5.65376 49.1383 5.58755C48.9354 6.86287 48.8021 8.13947 48.5992 9.41221L48.1973 12.8388L47.1268 20.8939L46.3886 26.1948L45.9867 28.3442L45.6505 29.9564C46.6579 29.8198 47.7277 29.8868 48.8014 29.9564C49.2703 24.5163 49.8056 19.1458 50.344 13.709L58.1183 30.0227H59.458L60.5981 27.5365L63.883 20.8939L67.3025 13.709L68.9121 30.0884C70.7903 29.8862 72.6646 29.8862 74.5428 30.0227C73.4691 21.8304 72.5319 13.709 71.5252 5.52057L71.5259 5.52121ZM106.386 12.5032C102.231 12.5696 101.896 14.4471 100.486 17.2026L100.419 12.9052C98.8135 13.0383 97.1992 13.0383 95.5933 12.9052C96.3314 16.4606 95.7961 26.1285 95.5933 30.0234H100.822C100.622 27.2016 100.553 24.3843 100.553 21.632V20.2891C101.092 16.1946 105.918 17.6039 105.851 17.6702L106.254 17.334C106.117 15.7224 106.184 14.1103 106.386 12.5032ZM91.8394 28.6804C90.6331 28.2779 90.9686 27.0682 90.9686 25.9945V18.6776C90.9686 15.9266 89.8949 13.51 87.0132 12.7023C86.0058 12.4337 84.9353 12.3003 83.995 12.3667C81.8508 12.5696 79.8399 13.51 77.8954 14.7157L78.2973 16.9327L78.6335 16.8664C80.4453 15.0519 82.4562 14.7827 83.9286 15.2542C86.545 16.0593 87.6155 19.0131 83.9286 20.2891C83.3535 20.4454 82.7725 20.5795 82.187 20.691C79.438 21.0929 76.622 22.5022 76.622 25.7253C76.622 27.8721 77.6957 29.7528 80.1091 30.3577C81.4489 30.6932 82.7886 30.6269 83.9286 30.0884C84.7994 29.6865 85.5376 29.0817 86.2094 28.1413C86.4084 27.8727 87.4821 32.641 92.9138 29.7535L93.0471 28.8794C92.6446 28.8794 92.1763 28.8131 91.8401 28.6798L91.8394 28.6804ZM83.928 28.075H83.7283C82.319 28.075 81.5145 27.0682 81.5815 25.1211C81.6511 23.2436 82.7879 22.3695 83.995 21.8311C84.869 21.4292 85.8068 21.2295 86.4084 20.8946C86.143 24.5163 86.6113 27.8734 83.9286 28.0763L83.928 28.075ZM110.677 13.1744L110.541 8.74041L115.636 6.46095L115.57 7.87024L115.433 9.61446V13.2407C116.441 13.2407 117.515 13.3064 118.519 12.9715C118.385 13.6137 118.385 14.2764 118.519 14.9186L115.234 14.8523V25.324C115.234 26.5993 115.301 27.5371 115.636 28.0093C116.308 28.9497 117.648 28.9497 118.788 28.4112L118.651 29.8862L117.917 30.1554C114.965 31.2285 111.009 30.8935 110.607 27.2711C110.541 26.8653 110.541 26.3307 110.541 25.8586V14.8523C109.736 14.9186 108.999 14.9186 108.194 14.9186C108.331 14.3132 108.331 13.709 108.194 13.0378L110.677 13.1744ZM22.7901 28.9503H42.9678L43.3697 29.957H22.3889L22.7901 28.9503ZM23.8639 26.4641H41.9643L42.3669 27.3381H23.4626L23.8639 26.4641ZM24.8712 24.0487H40.9569L41.2932 24.8525H24.5363L24.8719 24.0481L24.8712 24.0487ZM25.8084 21.7654H39.8858L40.1518 22.5029H25.5385L25.8084 21.7654ZM26.7456 19.482H38.9448L39.214 20.0875H26.4789L26.7456 19.482ZM27.6866 17.3359H38.0746L38.3438 17.8744H27.4843L27.6866 17.3359ZM28.5574 15.2555H37.2031L37.406 15.7237H28.3545L28.5574 15.2555ZM29.4282 13.2414H36.333L36.532 13.6433H29.2253L29.4282 13.2414ZM30.5689 5.04973C30.8343 4.85006 31.2369 4.9164 31.5061 5.18628C31.7058 5.45487 31.6388 5.85679 31.3728 6.12666C31.1035 6.32633 30.7016 6.25999 30.4317 5.99011C30.2321 5.72153 30.299 5.31896 30.5689 5.04973ZM35.1923 5.04973C34.9237 4.85006 34.5211 4.9164 34.2557 5.18628C34.0529 5.45487 34.1192 5.85679 34.3884 6.12666C34.6577 6.32633 35.0602 6.25999 35.3256 5.99011C35.5285 5.72153 35.4615 5.31896 35.1923 5.04973ZM32.9122 3.30487C32.0413 8.07055 32.6461 7.13403 28.2218 6.72825C32.5804 8.81191 32.1779 7.80454 30.0305 12.2353C31.9086 10.6895 32.8458 9.4135 32.9128 8.00421C32.9824 9.4135 33.9202 10.6231 35.7984 12.2353C33.6509 7.73498 33.249 8.74235 37.607 6.72825C33.182 7.13403 33.7875 8.00421 32.9134 3.30487H32.9122Z" fill="#11703B"/>
</g>
</svg>
