<svg width="20" height="20" viewBox="0 0 20 20" fill="none" xmlns="http://www.w3.org/2000/svg">
<g clip-path="url(#clip0_27_42)">
<path opacity="0.01" d="M0.159912 1.01575H18.6291V17.3121H0.159912V1.01575Z" fill="white" fill-opacity="0.1"/>
<path d="M10.0028 16.6819C8.61021 16.3658 7.35593 15.6109 6.42463 14.5284C6.29549 14.3784 6.17334 14.2226 6.05856 14.0614L7.04062 14.0094C7.14819 14.004 7.25372 13.978 7.35153 13.9329C8.15572 14.7259 9.16975 15.2726 10.2742 15.5086C13.4288 16.2369 16.2145 14.6171 16.8979 11.6568C17.5867 8.67319 15.797 5.97872 12.6425 5.25043C9.48793 4.52215 6.8079 6.13341 6.10784 9.1657L6.10539 9.17629L6.09798 9.17458C6.08475 9.17152 6.0696 9.17193 6.05364 9.17103L4.96394 9.11458C4.98007 9.03022 4.99437 8.96829 5.00745 8.91166C5.42092 7.23017 6.48433 5.78128 7.96449 4.88269C9.44466 3.9841 11.2208 3.70916 12.9033 4.11817C14.5949 4.48815 16.0707 5.51385 17.0072 6.97036C17.9436 8.42687 18.2643 10.1953 17.8988 11.8879C17.4854 13.5695 16.4221 15.0185 14.9418 15.9172C13.4616 16.8159 11.6854 17.0909 10.0028 16.6819ZM5.20353 12.409C5.0213 11.8919 4.90707 11.3534 4.86371 10.8069L5.96529 10.8649L5.96794 10.8656C6.00459 11.3759 6.12013 11.8774 6.31042 12.3523L5.20353 12.409Z" fill="#FFA238"/>
<path d="M13.5394 14.4833C13.4329 14.4592 13.3402 14.3942 13.2813 14.3022L11.096 10.9035C11.0673 10.8592 11.0476 10.8096 11.0383 10.7575C11.029 10.7055 11.0301 10.6522 11.0416 10.6006L11.8875 6.93679C11.9121 6.82998 11.9782 6.73734 12.0712 6.67925C12.1642 6.62116 12.2764 6.60238 12.3832 6.62704C12.49 6.6517 12.5827 6.71778 12.6407 6.81074C12.6988 6.90371 12.7176 7.01594 12.693 7.12275L11.8846 10.6241L13.9758 13.88C14.0048 13.9246 14.0244 13.9746 14.0337 14.027C14.0429 14.0793 14.0415 14.133 14.0296 14.1848C14.0176 14.2366 13.9953 14.2855 13.9641 14.3285C13.9328 14.3715 13.8932 14.4078 13.8476 14.4352C13.755 14.4906 13.6445 14.5079 13.5394 14.4833Z" fill="#FFA238"/>
<path d="M14.5889 2.19156L12.2932 1.66155C11.8384 1.55655 11.3846 1.84011 11.2796 2.2949C11.1746 2.74969 11.4582 3.20348 11.913 3.30848L14.2087 3.83849C14.6635 3.94349 15.1173 3.65993 15.2223 3.20514C15.3273 2.75035 15.0437 2.29656 14.5889 2.19156Z" fill="#FFA238"/>
<path d="M12.8284 2.73407L13.6529 2.92443L13.3198 4.36708L12.4953 4.17672L12.8284 2.73407Z" fill="#FFA238"/>
<path d="M9.28509 3.15545L7.26924 4.01113C6.83186 4.19679 6.62775 4.70174 6.81335 5.13898C6.99894 5.57622 7.50396 5.78017 7.94134 5.59451L9.95719 4.73884C10.3946 4.55318 10.5987 4.04823 10.4131 3.61099C10.2275 3.17375 9.72246 2.9698 9.28509 3.15545Z" fill="#FFA238"/>
<path d="M15.3459 5.96711L16.7833 7.6207C17.0949 7.97907 17.6379 8.01705 17.9963 7.70552L17.9967 7.70516C18.3551 7.39363 18.3931 6.85057 18.0815 6.4922L16.6441 4.83861C16.3326 4.48023 15.7895 4.44226 15.4311 4.75379L15.4307 4.75415C15.0723 5.06567 15.0344 5.60874 15.3459 5.96711Z" fill="#FFA238"/>
<path d="M4.39154 7.24164H0.804098C0.612418 7.24164 0.457031 7.39703 0.457031 7.5887V7.58925C0.457031 7.78093 0.612418 7.93631 0.804098 7.93631H4.39154C4.58322 7.93631 4.7386 7.78093 4.7386 7.58925V7.5887C4.7386 7.39703 4.58322 7.24164 4.39154 7.24164Z" fill="#FFA238"/>
<path d="M5.84417 9.60944H2.25673C2.06505 9.60944 1.90967 9.76482 1.90967 9.9565V9.95705C1.90967 10.1487 2.06505 10.3041 2.25673 10.3041H5.84417C6.03585 10.3041 6.19124 10.1487 6.19124 9.95705V9.9565C6.19124 9.76482 6.03585 9.60944 5.84417 9.60944Z" fill="#FFA238"/>
<path d="M7.30584 12.8286H3.7184C3.52672 12.8286 3.37134 12.9839 3.37134 13.1756V13.1762C3.37134 13.3678 3.52672 13.5232 3.7184 13.5232H7.30584C7.49752 13.5232 7.65291 13.3678 7.65291 13.1762V13.1756C7.65291 12.9839 7.49752 12.8286 7.30584 12.8286Z" fill="#FFA238"/>
<path d="M3.00884 11.4091H0.848775C0.657096 11.4091 0.501709 11.5645 0.501709 11.7562V11.7567C0.501709 11.9484 0.657096 12.1038 0.848775 12.1038H3.00884C3.20052 12.1038 3.35591 11.9484 3.35591 11.7567V11.7562C3.35591 11.5645 3.20052 11.4091 3.00884 11.4091Z" fill="#FFA238"/>
</g>
<defs>
<clipPath id="clip0_27_42">
<rect width="19.19" height="19.19" fill="white" transform="translate(0.159912 -0.00183105)"/>
</clipPath>
</defs>
</svg>
