<svg width="177" height="49" viewBox="0 0 177 49" fill="none" xmlns="http://www.w3.org/2000/svg">
<g clip-path="url(#clip0_1_16)">
<g clip-path="url(#clip1_1_16)">
<g clip-path="url(#clip2_1_16)">
<mask id="mask0_1_16" style="mask-type:luminance" maskUnits="userSpaceOnUse" x="27" y="0" width="122" height="49">
<path d="M27.33 0H148.952V48.8H27.33V0Z" fill="white"/>
</mask>
<g mask="url(#mask0_1_16)">
<path d="M142.47 3.27987C142.47 2.67629 142.603 2.14014 142.872 1.67268C143.136 1.13588 143.538 0.801989 144.074 0.466811C144.609 0.199053 145.142 0 145.679 0C146.279 0 146.812 0.132916 147.283 0.400674C147.817 0.669074 148.151 1.06975 148.486 1.60719C148.751 2.14014 148.953 2.67694 148.953 3.21053C148.953 3.74347 148.817 4.28348 148.552 4.81707C148.284 5.28774 147.883 5.68841 147.349 6.02359C146.812 6.29135 146.279 6.4904 145.679 6.4904C145.079 6.4904 144.542 6.35748 144.005 6.02359C143.471 5.75519 143.137 5.35452 142.802 4.81707C142.603 4.35026 142.47 3.81346 142.47 3.28052V3.27987ZM142.938 3.27987C142.938 3.74668 143.07 4.21349 143.339 4.6848C143.604 5.15161 143.938 5.48615 144.34 5.68841C144.74 5.95681 145.208 6.08908 145.744 6.08908C146.212 6.08908 146.679 5.95681 147.147 5.68841C147.614 5.42001 147.883 5.08547 148.151 4.6848C148.416 4.28348 148.552 3.81346 148.552 3.27987C148.552 2.80985 148.416 2.3424 148.151 1.87174C147.886 1.47375 147.545 1.13222 147.147 0.866842C146.746 0.602295 146.279 0.466168 145.744 0.466168C145.278 0.466168 144.806 0.602295 144.34 0.866842C143.942 1.13108 143.601 1.4726 143.339 1.87109C143.07 2.27562 142.938 2.74307 142.938 3.27987Z" fill="#0F6E3A"/>
<path d="M144.564 4.74516V1.58472H145.703C145.877 1.58472 146.027 1.59756 146.154 1.62324C146.281 1.64893 146.395 1.69387 146.498 1.7568C146.6 1.81909 146.678 1.90898 146.73 2.02584C146.782 2.14142 146.808 2.2859 146.808 2.45605C146.808 2.6275 146.755 2.79187 146.65 2.928C146.544 3.06477 146.385 3.15659 146.172 3.20411C146.362 3.31005 146.501 3.47443 146.591 3.69917L147.018 4.74323H146.421L146.059 3.80319C146 3.64909 145.935 3.54378 145.866 3.48856C145.797 3.43398 145.692 3.40637 145.551 3.40637H145.115V4.74323H144.564V4.74516ZM145.108 2.94149H145.636C146.03 2.94149 146.226 2.78931 146.226 2.48366C146.226 2.31736 146.184 2.20435 146.102 2.14592C146.02 2.08749 145.884 2.05795 145.694 2.05795H145.108V2.94149Z" fill="#11703B"/>
<path d="M132.651 30.8673C132.117 30.8673 131.717 30.9334 131.382 31.0002C131.047 31.0663 130.713 31.2025 130.514 31.4009C130.242 31.6086 130.034 31.8872 129.911 32.2061C129.75 32.6199 129.616 33.0437 129.51 33.4749L129.245 34.7469L127.571 42.3764C127.571 42.4425 127.571 42.5093 127.505 42.5786C127.373 43.0455 127.17 43.3806 126.971 43.5823C126.703 43.7813 126.302 43.8474 125.835 43.8474H123.764C123.698 43.8474 123.562 43.8474 123.429 43.7813C123.094 43.6484 122.829 43.3806 122.627 42.9132C122.544 42.746 122.499 42.5628 122.494 42.3764L121.825 37.8245C121.759 37.4238 121.759 37.0886 121.825 36.8909C121.825 36.8909 121.825 36.8215 121.891 36.8215C121.956 36.7554 121.956 36.6886 122.027 36.6225L122.093 36.557C122.093 36.557 122.159 36.557 122.159 36.487C122.358 36.3547 122.626 36.3547 123.027 36.3547H127.371L127.64 34.8843H120.555C119.351 34.8843 118.885 35.4834 119.084 36.7554L120.022 43.0467C120.022 43.3151 120.088 43.5135 120.22 43.7826C120.422 44.3194 120.754 44.7201 121.154 44.9223C121.556 45.1214 122.093 45.1875 122.626 45.1875H127.103C127.64 45.1875 128.041 45.1214 128.372 45.0546C128.707 44.9885 129.041 44.8523 129.243 44.6539C129.508 44.4517 129.71 44.1833 129.843 43.8487C129.976 43.5136 130.111 43.1129 130.244 42.5799L130.446 41.507L132.116 33.4762C132.249 33.0094 132.452 32.6748 132.65 32.5425C132.918 32.3403 133.32 32.2741 133.787 32.2741H135.457C135.59 32.2741 135.725 32.2741 135.924 32.3403C136.06 32.4064 136.259 32.4732 136.391 32.5425L136.726 30.7992L132.649 30.8686L132.651 30.8673ZM124.297 47.528C124.304 47.6988 124.276 47.8692 124.215 48.029C124.154 48.1888 124.062 48.3347 123.943 48.4579C123.825 48.5811 123.683 48.6791 123.525 48.7461C123.368 48.813 123.199 48.8475 123.028 48.8475C122.857 48.8475 122.688 48.813 122.53 48.7461C122.373 48.6791 122.231 48.5811 122.112 48.4579C121.994 48.3347 121.901 48.1888 121.841 48.029C121.78 47.8692 121.752 47.6988 121.759 47.528C121.766 47.1963 121.903 46.8808 122.14 46.6489C122.377 46.417 122.696 46.2871 123.028 46.2871C123.36 46.2871 123.678 46.417 123.915 46.6489C124.152 46.8808 124.289 47.1963 124.297 47.528ZM128.575 47.528C128.579 47.6971 128.55 47.8654 128.488 48.0229C128.426 48.1803 128.333 48.3239 128.215 48.4451C128.097 48.5662 127.956 48.6626 127.8 48.7285C127.644 48.7944 127.477 48.8285 127.308 48.8288C127.139 48.8291 126.971 48.7956 126.815 48.7302C126.659 48.6649 126.518 48.569 126.399 48.4483C126.281 48.3275 126.187 48.1843 126.125 48.027C126.063 47.8698 126.032 47.7016 126.036 47.5325C126.043 47.2006 126.179 46.8847 126.416 46.6522C126.653 46.4197 126.971 46.2892 127.303 46.2886C127.635 46.288 127.954 46.4174 128.192 46.649C128.43 46.8807 128.567 47.1962 128.575 47.528Z" fill="#EE4523"/>
<path d="M138.799 34.9492L137.194 42.6448C137.129 43.0455 136.93 43.3139 136.661 43.5823C136.392 43.8474 136.061 43.9174 135.66 43.9174C135.325 43.9174 135.057 43.8481 134.858 43.649C134.659 43.45 134.523 43.2484 134.523 42.9132V42.7771C134.523 42.7334 134.545 42.6891 134.589 42.6448L136.193 34.9492H133.254V36.1518L131.65 43.7813C131.65 43.8474 131.65 43.9174 131.58 43.9836V44.1826C131.58 44.5165 131.716 44.7849 131.915 44.9872C132.183 45.1862 132.518 45.2556 132.919 45.2556H135.326C135.66 45.2556 136.326 45.1195 136.727 44.5165L136.463 45.7879C136.326 46.3915 136.128 46.7921 135.859 46.9944C135.591 47.1935 135.19 47.2628 134.723 47.2628H132.185C132.052 47.2628 131.85 47.2628 131.718 47.1928C131.582 47.1273 131.383 47.0605 131.25 46.9938L130.916 48.7339H135.926C136.353 48.7337 136.778 48.689 137.195 48.6003C137.53 48.531 137.865 48.3987 138.067 48.1958C138.331 47.9974 138.534 47.7296 138.667 47.3944C138.799 47.0599 138.935 46.6586 139.068 46.1231L141.407 34.9485L138.799 34.9492ZM92.8877 45.3211L94.8262 36.2867V35.6844C94.8262 35.4821 94.8262 35.2169 94.76 35.0153H97.6335L97.5005 36.2212L98.5016 35.416C98.7038 35.283 98.8368 35.1476 99.0352 35.0808C99.1713 35.0153 99.3704 34.9485 99.5726 34.9485H100.639C100.974 34.9485 101.177 35.0146 101.309 35.1476C101.442 35.283 101.511 35.4153 101.511 35.5514L99.7049 37.5593V37.4232C99.7049 36.8196 99.3697 36.4857 98.7038 36.4857C98.3687 36.4857 98.0348 36.6212 97.7657 36.8196C97.4916 37.0389 97.3026 37.3471 97.2315 37.6909L95.6275 45.1843H92.887L92.8877 45.3211ZM103.247 45.3211C102.177 45.3211 101.375 45.0533 100.908 44.4504C100.441 43.8468 100.172 43.0455 100.172 42.0412C100.172 41.4383 100.238 40.7698 100.44 39.9017C100.639 38.8975 100.907 38.0923 101.242 37.4232C101.534 36.831 101.917 36.2888 102.379 35.8166C102.845 35.416 103.312 35.1476 103.916 35.0146C104.516 34.8824 105.185 34.7469 105.921 34.7469C106.988 34.7469 107.723 34.9492 108.257 35.416C108.794 35.886 109.059 36.6218 109.059 37.6916C109.059 38.2952 108.993 39.0297 108.794 39.9017H103.181C103.044 40.4347 102.978 40.9053 102.912 41.3066C102.846 41.7073 102.846 42.108 102.846 42.4425C102.846 43.0455 102.979 43.5123 103.313 43.8474C103.581 44.1152 104.181 44.3175 104.983 44.3175C105.384 44.3175 106.12 44.2513 107.124 44.1152V45.3211H103.247ZM106.389 38.5629C106.455 38.2945 106.455 38.0923 106.521 37.8239C106.588 37.5587 106.588 37.357 106.588 37.1548C106.588 36.7541 106.521 36.4189 106.322 36.1512C106.186 35.886 105.852 35.7499 105.451 35.7499C104.984 35.7499 104.583 36.0183 104.248 36.4857C103.916 36.9557 103.648 37.6916 103.516 38.5629H106.389ZM118.083 37.3577C118.149 37.0893 118.149 36.8909 118.149 36.6886C118.149 35.5527 117.414 35.0159 115.945 35.0159H111.534V36.557C111.957 36.3774 112.411 36.286 112.87 36.2886H114.007C114.54 36.2886 114.874 36.3547 115.073 36.5563C115.275 36.6893 115.408 36.9577 115.408 37.2922V37.4912C115.408 37.5606 115.408 37.6274 115.342 37.6935L115.209 38.2964C114.428 38.3015 113.647 38.3456 112.87 38.4287C112.217 38.4858 111.581 38.6683 110.998 38.9662C110.463 39.2339 109.997 39.6352 109.595 40.102C109.195 40.5721 108.926 41.2418 108.793 41.977C108.657 42.6461 108.591 43.249 108.591 43.7158C108.591 44.3849 108.793 44.8523 109.128 45.054C109.46 45.2562 110.063 45.3891 110.799 45.3891H112.403C112.403 45.3891 113.47 45.4546 113.94 44.6533L113.804 45.3885H116.813C116.746 45.2562 116.676 45.1207 116.676 44.9878C116.676 44.8549 116.61 44.7201 116.61 44.5872C116.61 44.4542 116.61 44.252 116.676 43.9836L118.082 37.3583L118.083 37.3577ZM114.342 42.3764C114.272 42.7777 114.073 43.1122 113.805 43.4461C113.54 43.7813 113.139 43.9168 112.535 43.9168C112.267 43.9168 112.002 43.8474 111.8 43.7145C111.601 43.5816 111.534 43.3139 111.534 42.9787V42.7764C111.534 42.7109 111.534 42.6441 111.601 42.5774L111.866 41.2399C112.002 40.5008 112.403 39.9678 112.936 39.6988C113.539 39.431 114.205 39.2981 115.007 39.2981L114.341 42.3757L114.342 42.3764ZM91.4166 43.1122H75.9804L76.5146 44.3842H91.0846L91.4166 43.1122ZM92.1525 39.634H74.5093L75.0468 40.9053H91.8173L92.1525 39.634ZM92.8877 36.1518H73.1076L73.6406 37.4232H92.6193C92.5538 37.49 92.8215 36.2879 92.8877 36.1518Z" fill="#EE4523"/>
<path d="M47.8453 9.18467C46.1758 7.11067 43.7692 5.8393 40.7609 5.50412C40.1612 5.43799 39.5576 5.368 38.7556 5.368H37.4862L34.345 5.50412H29.133L27.33 5.43799L27.5291 6.97455V9.18467L27.6652 12.5975V23.8414L27.5291 28.191L27.33 30.0634L29.1985 29.9311H31.2038L34.0805 30.0634L38.3556 29.9311H38.7563C40.3603 29.865 41.8975 29.5298 43.233 28.8607C44.7041 28.1923 45.9735 27.188 47.1107 25.916C49.2476 23.4375 50.318 20.426 50.318 16.8816C50.3842 13.8701 49.516 11.3261 47.8459 9.18595L47.8453 9.18467ZM38.8231 27.6542C37.9037 27.8732 36.9622 27.9857 36.0171 27.9894H32.8778V23.1723L32.8085 17.8846L32.8778 12.5975V7.44585H35.7512C36.7516 7.44585 37.822 7.51199 38.8231 7.78039C42.1004 8.58238 44.7715 10.9909 44.7715 17.08C44.7715 23.1684 42.5678 26.6506 38.8231 27.6542ZM98.6345 5.50412C97.7003 5.70318 96.5631 5.70318 95.562 5.63704C92.7561 11.2587 90.081 16.8809 87.3405 22.4326L79.3213 5.57026C78.3207 5.63626 77.3168 5.63626 76.3162 5.57026C76.114 6.84163 75.9811 8.11428 75.7788 9.38308L75.3781 12.7991L74.3109 20.8292L73.5751 26.1138L73.1744 28.2565L72.8392 29.8637C73.8435 29.7275 74.91 29.7943 75.9804 29.8637C76.4479 24.4404 76.9815 19.0866 77.5183 13.6666L85.2685 29.9298H86.604L87.7406 27.4513L91.0153 20.8292L94.4242 13.6666L96.0289 29.9953C97.9012 29.7937 99.7698 29.7937 101.642 29.9298C100.572 21.7629 99.6375 13.6666 98.6339 5.50348L98.6345 5.50412ZM133.387 12.4645C129.244 12.5307 128.91 14.4024 127.505 17.1493L127.439 12.8652C125.838 12.9979 124.228 12.9979 122.627 12.8652C123.363 16.4096 122.83 26.0476 122.627 29.9304H127.84C127.641 27.1174 127.572 24.3088 127.572 21.5651V20.2263C128.109 16.1444 132.92 17.5494 132.854 17.6155L133.255 17.2803C133.119 15.6738 133.185 14.0666 133.387 12.4645ZM118.885 28.5917C117.683 28.1903 118.017 26.9845 118.017 25.9141V18.6198C118.017 15.8773 116.947 13.4682 114.074 12.663C113.07 12.3952 112.003 12.2623 111.065 12.3284C108.927 12.5307 106.923 13.4682 104.984 14.6702L105.385 16.8803L105.72 16.8142C107.526 15.0054 109.531 14.737 110.999 15.207C113.607 16.0096 114.674 18.9543 110.999 20.2263C110.426 20.3821 109.846 20.5158 109.263 20.627C106.522 21.0277 103.715 22.4326 103.715 25.6457C103.715 27.7858 104.785 29.6608 107.191 30.2637C108.527 30.5982 109.862 30.5321 110.999 29.9953C111.867 29.5946 112.603 28.9917 113.273 28.0542C113.471 27.7865 114.541 32.54 119.956 29.6614L120.089 28.7901C119.688 28.7901 119.221 28.7239 118.886 28.591L118.885 28.5917ZM110.998 27.9881H110.799C109.394 27.9881 108.592 26.9845 108.659 25.0434C108.728 23.1716 109.862 22.3003 111.065 21.7635C111.936 21.3628 112.871 21.1638 113.471 20.8299C113.206 24.4404 113.673 27.7871 110.999 27.9894L110.998 27.9881ZM137.665 13.1336L137.529 8.71337L142.608 6.44096L142.542 7.84588L142.406 9.5847V13.1998C143.41 13.1998 144.481 13.2652 145.482 12.9314C145.349 13.5716 145.349 14.2322 145.482 14.8724L142.208 14.8063V25.2456C142.208 26.517 142.274 27.4519 142.608 27.9226C143.278 28.8601 144.614 28.8601 145.75 28.3233L145.614 29.7937L144.882 30.0621C141.939 31.1318 137.996 30.7979 137.595 27.1867C137.529 26.7822 137.529 26.2493 137.529 25.7786V14.8063C136.727 14.8724 135.992 14.8724 135.19 14.8724C135.326 14.2689 135.326 13.6666 135.19 12.9975L137.665 13.1336ZM50.0496 28.8607H70.1649L70.5655 29.8643H49.6496L50.0496 28.8607ZM51.12 26.3822H69.1645L69.5658 27.2535H50.72L51.12 26.3822ZM52.1243 23.9743H68.1602L68.4954 24.7756H51.7904L52.1249 23.9736L52.1243 23.9743ZM53.0585 21.698H67.0924L67.3576 22.4332H52.7895L53.0585 21.698ZM53.9928 19.4218H66.1543L66.4227 20.0253H53.727L53.9928 19.4218ZM54.9309 17.2823H65.2868L65.5552 17.8191H54.7293L54.9309 17.2823ZM55.799 15.2083H64.418L64.6203 15.6751H55.5968L55.799 15.2083ZM56.6672 13.2004H63.5505L63.7489 13.6011H56.4649L56.6672 13.2004ZM57.8043 5.0341C58.0689 4.83505 58.4702 4.90119 58.7386 5.17023C58.9377 5.43799 58.8709 5.83866 58.6057 6.1077C58.3373 6.30676 57.9366 6.24062 57.6676 5.97158C57.4685 5.70382 57.5353 5.3025 57.8043 5.0341ZM62.4134 5.0341C62.1456 4.83505 61.7443 4.90119 61.4797 5.17023C61.2775 5.43799 61.3436 5.83866 61.612 6.1077C61.8804 6.30676 62.2817 6.24062 62.5463 5.97158C62.7485 5.70382 62.6818 5.3025 62.4134 5.0341ZM60.1403 3.29464C59.2722 8.04558 59.8751 7.11196 55.4645 6.70743C59.8096 8.78464 59.4083 7.78039 57.2675 12.1974C59.1399 10.6564 60.0742 9.38437 60.141 7.97944C60.2103 9.38437 61.1452 10.5902 63.0176 12.1974C60.8768 7.71104 60.4761 8.71529 64.8206 6.70743C60.4094 7.11196 61.0129 7.97944 60.1416 3.29464H60.1403Z" fill="#11703B"/>
</g>
</g>
</g>
</g>
<defs>
<clipPath id="clip0_1_16">
<rect width="122" height="49" fill="white" transform="translate(27.33)"/>
</clipPath>
<clipPath id="clip1_1_16">
<rect width="122" height="49" fill="white" transform="translate(27.33)"/>
</clipPath>
<clipPath id="clip2_1_16">
<rect width="122" height="48.8" fill="white" transform="translate(27.33)"/>
</clipPath>
</defs>
</svg>
