<svg width="24" height="26" viewBox="0 0 24 26" fill="none" xmlns="http://www.w3.org/2000/svg">
<path d="M0.404018 0.356205C0.101004 0.659218 0 1.16424 0 1.77027V24.0923C0 24.6983 0.202009 25.2033 0.505022 25.5063L0.606027 25.6073L13.1306 13.0828V12.8808L0.404018 0.356205Z" fill="url(#paint0_linear_1_1808)"/>
<path d="M17.1708 17.3252L13.0296 13.184V12.881L17.1708 8.73985L17.2718 8.84085L22.221 11.669C23.6351 12.477 23.6351 13.7901 22.221 14.5981L17.1708 17.3252Z" fill="url(#paint1_linear_1_1808)"/>
<path d="M17.2718 17.2239L13.0296 12.9817L0.403999 25.6073C0.909022 26.1123 1.61605 26.1123 2.52509 25.7083L17.2718 17.2239Z" fill="url(#paint2_linear_1_1808)"/>
<path d="M17.2718 8.73958L2.52509 0.356202C1.61605 -0.14882 0.909022 -0.0478161 0.403999 0.457206L13.0296 12.9818L17.2718 8.73958Z" fill="url(#paint3_linear_1_1808)"/>
<path opacity="0.2" d="M17.1707 17.123L2.52509 25.4054C1.71706 25.9104 1.01003 25.8094 0.505004 25.4054L0.403999 25.5064L0.505004 25.6074C1.01003 26.0114 1.71706 26.1124 2.52509 25.6074L17.1707 17.123Z" fill="black"/>
<path opacity="0.12" d="M0.404018 25.4053C0.101004 25.1023 0 24.5973 0 23.9912V24.0922C0 24.6983 0.202009 25.2033 0.505022 25.5063V25.4053H0.404018ZM22.221 14.2948L17.1708 17.1229L17.2718 17.2239L22.221 14.3958C22.928 13.9918 23.231 13.4868 23.231 12.9817C23.231 13.4868 22.827 13.8908 22.221 14.2948Z" fill="black"/>
<path opacity="0.25" d="M2.52511 0.457358L22.221 11.6689C22.827 12.0729 23.231 12.4769 23.231 12.9819C23.231 12.4769 22.928 11.9719 22.221 11.5679L2.52511 0.356353C1.11105 -0.451683 0 0.154344 0 1.77042V1.87142C0 0.356353 1.11105 -0.350678 2.52511 0.457358Z" fill="white"/>
<defs>
<linearGradient id="paint0_linear_1_1808" x1="11.9185" y1="1.57836" x2="-5.03305" y2="18.5289" gradientUnits="userSpaceOnUse">
<stop stop-color="#00A0FF"/>
<stop offset="0.007" stop-color="#00A1FF"/>
<stop offset="0.26" stop-color="#00BEFF"/>
<stop offset="0.512" stop-color="#00D2FF"/>
<stop offset="0.76" stop-color="#00DFFF"/>
<stop offset="1" stop-color="#00E3FF"/>
</linearGradient>
<linearGradient id="paint1_linear_1_1808" x1="24.0734" y1="12.983" x2="-0.366625" y2="12.983" gradientUnits="userSpaceOnUse">
<stop stop-color="#FFE000"/>
<stop offset="0.409" stop-color="#FFBD00"/>
<stop offset="0.775" stop-color="#FFA500"/>
<stop offset="1" stop-color="#FF9C00"/>
</linearGradient>
<linearGradient id="paint2_linear_1_1808" x1="14.9759" y1="15.3008" x2="-8.01068" y2="38.2874" gradientUnits="userSpaceOnUse">
<stop stop-color="#FF3A44"/>
<stop offset="1" stop-color="#C31162"/>
</linearGradient>
<linearGradient id="paint3_linear_1_1808" x1="-2.73017" y1="-7.04137" x2="7.53492" y2="3.22372" gradientUnits="userSpaceOnUse">
<stop stop-color="#32A071"/>
<stop offset="0.069" stop-color="#2DA771"/>
<stop offset="0.476" stop-color="#15CF74"/>
<stop offset="0.801" stop-color="#06E775"/>
<stop offset="1" stop-color="#00F076"/>
</linearGradient>
</defs>
</svg>
