<svg width="37" height="20" viewBox="0 0 37 20" fill="none" xmlns="http://www.w3.org/2000/svg">
<path d="M34.9188 0.231024H2.08127C1.05955 0.231024 0.231273 1.0593 0.231273 2.08102V17.3435C0.231273 18.3652 1.05955 19.1935 2.08127 19.1935H34.9188C35.9405 19.1935 36.7688 18.3652 36.7688 17.3435V2.08102C36.7688 1.0593 35.9405 0.231024 34.9188 0.231024Z" fill="#F1F2F6" stroke="#C3C3C3" stroke-width="0.454545"/>
<path d="M20.8125 9.71241C20.8125 12.7779 18.328 15.2624 15.2625 15.2624C12.1971 15.2624 9.71251 12.7779 9.71251 9.71241C9.71251 6.64696 12.198 4.16241 15.2625 4.16241C18.328 4.16241 20.8125 6.64696 20.8125 9.71241Z" fill="#E2574C"/>
<path d="M21.7384 4.16241C20.4934 4.16241 19.3482 4.57681 18.4223 5.26871L18.4269 5.26963C18.6092 5.44538 18.8099 5.56933 18.9644 5.77191L17.81 5.79041C17.6296 5.97263 17.4649 6.17151 17.3095 6.37778H19.3445C19.4999 6.56371 19.6433 6.72558 19.7728 6.93093H16.9405C16.8369 7.10946 16.7407 7.29353 16.6565 7.48408H20.0956C20.1854 7.67463 20.2658 7.81801 20.3343 8.01966H16.453C16.391 8.21113 16.3383 8.40723 16.2985 8.60703H20.4962C20.5378 8.79851 20.5692 8.97703 20.5905 9.15741H16.2153C16.1968 9.33963 16.1875 9.52556 16.1875 9.71241H20.6229C20.6229 9.90851 20.609 10.0917 20.5887 10.2674H16.2153C16.2338 10.4552 16.2615 10.6402 16.2985 10.8224H20.4897C20.4462 11.0019 20.3972 11.1832 20.3343 11.3709H16.44C16.4992 11.5606 16.5705 11.7446 16.6491 11.925H20.0956C19.9994 12.1267 19.8921 12.2885 19.7719 12.4772H16.9303C17.0422 12.6715 17.1662 12.8565 17.3003 13.035L19.3445 13.0655C19.1706 13.2746 18.9468 13.4004 18.7433 13.5835C18.7544 13.5928 18.4177 13.5826 17.7535 13.5715C18.7646 14.6131 20.1743 15.2624 21.7384 15.2624C24.8039 15.2624 27.2884 12.7779 27.2884 9.71241C27.2884 6.64696 24.8048 4.16241 21.7384 4.16241Z" fill="#F4B459"/>
</svg>
