<svg width="135" height="40" viewBox="0 0 135 40" fill="none" xmlns="http://www.w3.org/2000/svg">
<path d="M134.104 35.2777C134.104 35.7811 134.005 36.2796 133.812 36.7447C133.62 37.2098 133.337 37.6323 132.981 37.9881C132.624 38.3439 132.202 38.626 131.736 38.8183C131.271 39.0106 130.772 39.1093 130.268 39.1088H4.73153C3.71405 39.1098 2.73781 38.7068 2.01749 37.9884C1.29718 37.27 0.891782 36.2949 0.890456 35.2777V4.72627C0.891781 3.7086 1.29702 2.73305 2.01719 2.01382C2.73736 1.29459 3.71359 0.890476 4.73153 0.890212H130.267C130.771 0.890212 131.27 0.989442 131.736 1.18223C132.201 1.37503 132.624 1.6576 132.98 2.01383C133.337 2.37005 133.619 2.79294 133.812 3.25835C134.004 3.72376 134.104 4.22256 134.104 4.72627L134.104 35.2777Z" fill="white"/>
<path d="M130.268 40H4.73156C3.47814 39.9998 2.27601 39.5024 1.38896 38.6171C0.501908 37.7318 0.00238492 36.5308 0 35.2777L0 4.7273C0.00185426 3.4736 0.501047 2.27181 1.38807 1.38558C2.2751 0.499356 3.47752 0.00105818 4.73156 0L130.267 0C131.521 0.00158618 132.723 0.500054 133.61 1.38617C134.497 2.27228 134.997 3.47376 134.999 4.7273V35.2777C135.001 37.8825 132.875 40 130.268 40Z" fill="#A6A6A6"/>
<path d="M134.104 35.2777C134.104 35.7811 134.005 36.2796 133.812 36.7447C133.62 37.2098 133.337 37.6323 132.981 37.9881C132.624 38.3439 132.202 38.626 131.736 38.8183C131.271 39.0106 130.772 39.1093 130.268 39.1088H4.73153C3.71405 39.1098 2.73781 38.7068 2.01749 37.9884C1.29718 37.27 0.891782 36.2949 0.890456 35.2777V4.72627C0.891781 3.7086 1.29702 2.73305 2.01719 2.01382C2.73736 1.29459 3.71359 0.890476 4.73153 0.890212H130.267C130.771 0.890212 131.27 0.989442 131.736 1.18223C132.201 1.37503 132.624 1.6576 132.98 2.01383C133.337 2.37005 133.619 2.79294 133.812 3.25835C134.004 3.72376 134.104 4.22256 134.104 4.72627L134.104 35.2777Z" fill="black"/>
<path d="M30.1443 19.7895C30.1153 16.5656 32.7847 14.9972 32.9068 14.9242C31.395 12.7206 29.0517 12.4195 28.2283 12.3955C26.2602 12.1884 24.3512 13.5728 23.3486 13.5728C22.3261 13.5728 20.7823 12.4155 19.1184 12.4495C16.9772 12.4825 14.9741 13.7219 13.8755 15.6464C11.6083 19.5705 13.2992 25.3371 15.4714 28.5089C16.558 30.0634 17.8277 31.7968 19.4896 31.7358C21.1154 31.6698 21.7228 30.7005 23.6848 30.7005C25.6289 30.7005 26.1992 31.7358 27.8941 31.6968C29.639 31.6698 30.7376 30.1364 31.7862 28.569C33.0419 26.7895 33.5462 25.035 33.5662 24.945C33.5261 24.931 30.1783 23.6526 30.1443 19.7895ZM26.9426 10.3089C27.8171 9.21561 28.4154 7.7282 28.2493 6.21879C26.9836 6.2748 25.4007 7.09403 24.4893 8.16332C23.6828 9.10558 22.9624 10.65 23.1485 12.1024C24.5703 12.2084 26.0301 11.3852 26.9426 10.3089Z" fill="white"/>
<path d="M130.268 0H63.0271L89.3643 40H130.268C131.522 39.999 132.724 39.501 133.611 38.6152C134.498 37.7294 134.998 36.5281 135 35.2747V4.7273C134.998 3.47368 134.499 2.27204 133.612 1.38587C132.725 0.499705 131.522 0.00132228 130.268 0Z" fill="url(#paint0_linear_1_1826)"/>
<path d="M53.694 31.5127H51.4218L50.1771 27.6026H45.8508L44.6651 31.5127H42.453L46.7403 18.201H49.3877L53.694 31.5127ZM49.8019 25.9622L48.6763 22.4862C48.5573 22.1311 48.3331 21.2949 48.005 19.9785H47.9649C47.8329 20.5447 47.6217 21.3809 47.3326 22.4862L46.226 25.9622H49.8019ZM64.698 26.5953C64.698 28.2278 64.2547 29.5181 63.3673 30.4654C62.5728 31.3086 61.5853 31.7297 60.4077 31.7297C59.136 31.7297 58.2215 31.2766 57.6662 30.3684V35.4048H55.533V25.0689C55.533 24.0436 55.506 22.9923 55.454 21.914H57.33L57.4491 23.4355H57.4891C58.2005 22.2891 59.28 21.716 60.7288 21.716C61.8614 21.716 62.807 22.1631 63.5634 23.0584C64.3188 23.9556 64.698 25.1339 64.698 26.5953ZM62.5248 26.6734C62.5248 25.7391 62.3147 24.9689 61.8925 24.3617C61.4312 23.7305 60.8119 23.4145 60.0355 23.4145C59.5092 23.4145 59.0309 23.5905 58.6037 23.9376C58.1755 24.2877 57.8953 24.7448 57.7642 25.311C57.7057 25.5227 57.6725 25.7406 57.6652 25.9602V27.5616C57.6652 28.2588 57.8793 28.848 58.3075 29.3301C58.7358 29.8102 59.2921 30.0513 59.9764 30.0513C60.7799 30.0513 61.4052 29.7402 61.8524 29.123C62.3007 28.5039 62.5248 27.6876 62.5248 26.6734ZM75.7409 26.5953C75.7409 28.2278 75.2977 29.5181 74.4102 30.4654C73.6148 31.3086 72.6283 31.7297 71.4496 31.7297C70.1779 31.7297 69.2634 31.2766 68.7081 30.3684V35.4048H66.575V25.0689C66.575 24.0436 66.548 22.9923 66.496 21.914H68.372L68.491 23.4355H68.5311C69.2414 22.2891 70.321 21.716 71.7708 21.716C72.9024 21.716 73.8479 22.1631 74.6063 23.0584C75.3607 23.9556 75.7409 25.1339 75.7409 26.5953ZM73.5668 26.6734C73.5668 25.7391 73.3557 24.9689 72.9334 24.3617C72.4722 23.7305 71.8549 23.4145 71.0784 23.4145C70.5521 23.4145 70.0739 23.5905 69.6447 23.9376C69.2164 24.2877 68.9373 24.7448 68.8062 25.311C68.7412 25.5751 68.7061 25.7901 68.7061 25.9602V27.5616C68.7061 28.2588 68.9213 28.848 69.3475 29.3301C69.7757 29.8092 70.332 30.0513 71.0184 30.0513C71.8228 30.0513 72.4482 29.7402 72.8944 29.123C73.3427 28.5039 73.5668 27.6876 73.5668 26.6734ZM88.0876 27.7787C88.0876 28.912 87.6914 29.8332 86.904 30.5444C86.0375 31.3206 84.8279 31.7097 83.277 31.7097C81.8443 31.7097 80.6956 31.4337 79.8292 30.8805L80.3224 29.103C81.2579 29.6572 82.2855 29.9333 83.4041 29.9333C84.2085 29.9333 84.8339 29.7512 85.2801 29.3901C85.7274 29.028 85.9535 28.5439 85.9535 27.9397C85.9535 27.3986 85.7664 26.9454 85.3992 26.5763C85.03 26.2082 84.4196 25.8651 83.5622 25.55C81.2309 24.6808 80.0643 23.4095 80.0643 21.737C80.0643 20.6447 80.4765 19.7504 81.299 19.0512C82.1214 18.3531 83.212 18.004 84.5687 18.004C85.7804 18.004 86.7899 18.215 87.5914 18.6361L87.0561 20.3746C86.3017 19.9665 85.4502 19.7624 84.4977 19.7624C83.7453 19.7624 83.155 19.9475 82.7327 20.3156C82.3775 20.6447 82.1974 21.0458 82.1974 21.5219C82.1974 22.0471 82.4026 22.4832 82.8108 22.8253C83.165 23.1404 83.8113 23.4835 84.7458 23.8516C85.8924 24.3137 86.7349 24.8518 87.2742 25.47C87.8175 26.0882 88.0876 26.8594 88.0876 27.7787ZM95.1585 23.5145H92.8072V28.1748C92.8072 29.3601 93.2214 29.9513 94.0519 29.9513C94.4331 29.9513 94.7492 29.9192 94.9994 29.8522L95.0584 31.4717C94.6382 31.6287 94.0849 31.7077 93.3995 31.7077C92.557 31.7077 91.8987 31.4507 91.4234 30.9365C90.9502 30.4224 90.712 29.5611 90.712 28.3488V23.5105H89.3113V21.91H90.712V20.1526L92.8072 19.5204V21.91H95.1585V23.5145ZM105.746 26.6343C105.746 28.1098 105.324 29.3211 104.481 30.2683C103.6 31.2436 102.427 31.7297 100.966 31.7297C99.5548 31.7297 98.4332 31.2626 97.5968 30.3294C96.7603 29.3941 96.3421 28.2158 96.3421 26.7944C96.3421 25.307 96.7743 24.0886 97.6358 23.1414C98.4993 22.1931 99.6619 21.719 101.124 21.719C102.532 21.719 103.664 22.1871 104.521 23.1214C105.339 24.0276 105.746 25.1979 105.746 26.6343ZM103.535 26.6834C103.535 25.8041 103.345 25.0499 102.964 24.4187C102.516 23.6565 101.876 23.2754 101.047 23.2754C100.192 23.2754 99.5368 23.6565 99.0906 24.4187C98.7084 25.0499 98.5183 25.8171 98.5183 26.7234C98.5183 27.6036 98.7084 28.3598 99.0906 28.989C99.5518 29.7512 100.195 30.1323 101.029 30.1323C101.844 30.1323 102.483 29.7432 102.946 28.97C103.338 28.3238 103.535 27.5646 103.535 26.6834ZM112.683 23.7896C112.461 23.7495 112.236 23.7298 112.011 23.7305C111.26 23.7305 110.68 24.0126 110.272 24.5808C109.917 25.0809 109.739 25.7131 109.739 26.4763V31.5127H107.606V24.9369C107.608 23.9293 107.587 22.9217 107.544 21.915H109.402L109.48 23.7515H109.539C109.765 23.1204 110.12 22.6112 110.606 22.2301C111.051 21.8971 111.592 21.7168 112.148 21.716C112.345 21.716 112.523 21.73 112.681 21.755L112.683 23.7896ZM122.223 26.2592C122.228 26.5834 122.202 26.9074 122.145 27.2265H115.746C115.77 28.1748 116.08 28.901 116.674 29.4011C117.213 29.8472 117.911 30.0713 118.767 30.0713C119.715 30.0713 120.579 29.9212 121.357 29.6182L121.691 31.0976C120.782 31.4937 119.71 31.6907 118.472 31.6907C116.983 31.6907 115.815 31.2526 114.964 30.3784C114.116 29.5031 113.69 28.3268 113.69 26.8534C113.69 25.407 114.086 24.2017 114.877 23.2404C115.706 22.2141 116.825 21.701 118.234 21.701C119.618 21.701 120.665 22.2141 121.377 23.2404C121.94 24.0536 122.223 25.0619 122.223 26.2592ZM120.189 25.7061C120.204 25.0729 120.064 24.5278 119.775 24.0666C119.406 23.4725 118.837 23.1764 118.076 23.1764C117.378 23.1764 116.81 23.4655 116.378 24.0456C116.023 24.5068 115.812 25.0609 115.747 25.7041L120.189 25.7061Z" fill="white"/>
<path d="M45.2354 13.4947C44.6421 13.4947 44.1289 13.4657 43.7016 13.4166V6.98087C44.2992 6.88859 44.903 6.84311 45.5076 6.84483C47.9539 6.84483 49.0805 8.04816 49.0805 10.0097C49.0805 12.2723 47.7498 13.4947 45.2354 13.4947ZM45.5936 7.67006C45.2635 7.67006 44.9823 7.69007 44.7492 7.73808V12.6304C44.8753 12.6504 45.1174 12.6594 45.4576 12.6594C47.0604 12.6594 47.9729 11.7472 47.9729 10.0387C47.9729 8.51529 47.1475 7.67006 45.5936 7.67006ZM52.5914 13.5437C51.2127 13.5437 50.3192 12.5144 50.3192 11.117C50.3192 9.66061 51.2317 8.62232 52.6695 8.62232C54.0282 8.62232 54.9417 9.60259 54.9417 11.04C54.9417 12.5144 54.0002 13.5437 52.5914 13.5437ZM52.6315 9.38853C51.874 9.38853 51.3888 10.0967 51.3888 11.087C51.3888 12.0583 51.884 12.7665 52.6214 12.7665C53.3588 12.7665 53.8541 12.0093 53.8541 11.067C53.8541 10.1067 53.3688 9.38853 52.6315 9.38853ZM62.804 8.71935L61.3282 13.4367H60.3666L59.7553 11.3881C59.6033 10.887 59.4767 10.3785 59.3761 9.86467H59.3561C59.279 10.3788 59.133 10.894 58.9779 11.3881L58.3275 13.4367H57.356L55.9673 8.71935H57.0448L57.5791 10.962C57.7052 11.4961 57.8113 12.0003 57.8993 12.4764H57.9193C57.9964 12.0793 58.1224 11.5831 58.3075 10.972L58.9779 8.72035H59.8323L60.4737 10.924C60.6288 11.4581 60.7548 11.9823 60.8529 12.4774H60.8809C60.9489 11.9923 61.056 11.4771 61.2011 10.924L61.7744 8.72035L62.804 8.71935ZM68.2369 13.4367H67.1883V10.7279C67.1883 9.89367 66.8681 9.47556 66.2368 9.47556C65.6155 9.47556 65.1882 10.0097 65.1882 10.6309V13.4367H64.1397V10.0677C64.1397 9.65061 64.1297 9.20348 64.1007 8.71835H65.0231L65.0722 9.44655H65.1012C65.3833 8.94241 65.9557 8.62232 66.597 8.62232C67.5875 8.62232 68.2379 9.37953 68.2379 10.6119L68.2369 13.4367ZM71.1284 13.4367H70.0789V6.55475H71.1284V13.4367ZM74.9515 13.5437C73.5738 13.5437 72.6793 12.5144 72.6793 11.117C72.6793 9.66061 73.5918 8.62232 75.0286 8.62232C76.3883 8.62232 77.3008 9.60259 77.3008 11.04C77.3018 12.5144 76.3593 13.5437 74.9515 13.5437ZM74.9905 9.38853C74.2331 9.38853 73.7479 10.0967 73.7479 11.087C73.7479 12.0583 74.2441 12.7665 74.9795 12.7665C75.7179 12.7665 76.2122 12.0093 76.2122 11.067C76.2132 10.1067 75.7289 9.38853 74.9905 9.38853ZM81.435 13.4367L81.359 12.8935H81.331C81.0108 13.3306 80.5435 13.5437 79.9512 13.5437C79.1058 13.5437 78.5054 12.9515 78.5054 12.1553C78.5054 10.991 79.515 10.3888 81.2629 10.3888V10.3018C81.2629 9.68061 80.9338 9.36953 80.2834 9.36953C79.8182 9.36953 79.4099 9.48656 79.0507 9.71963L78.8376 9.03044C79.2739 8.75836 79.8182 8.62232 80.4575 8.62232C81.6902 8.62232 82.3125 9.2725 82.3125 10.5739V12.3113C82.3125 12.7875 82.3335 13.1566 82.3805 13.4377L81.435 13.4367ZM81.291 11.087C80.1263 11.087 79.542 11.3691 79.542 12.0383C79.542 12.5334 79.8432 12.7755 80.2614 12.7755C80.7947 12.7755 81.291 12.3684 81.291 11.8152V11.087ZM87.4043 13.4367L87.3552 12.6794H87.3262C87.025 13.2516 86.5188 13.5437 85.8114 13.5437C84.6738 13.5437 83.8313 12.5434 83.8313 11.136C83.8313 9.66061 84.7048 8.62132 85.8974 8.62132C86.5288 8.62132 86.976 8.83438 87.2282 9.2625H87.2492V6.55475H88.2987V12.1653C88.2987 12.6214 88.3097 13.0485 88.3378 13.4367H87.4043ZM87.2492 10.6609C87.2492 10.0007 86.8119 9.43755 86.1446 9.43755C85.3672 9.43755 84.8919 10.1267 84.8919 11.097C84.8919 12.0483 85.3852 12.6994 86.1236 12.6994C86.7829 12.6994 87.2492 12.1263 87.2492 11.4471V10.6609ZM94.9533 13.5437C93.5756 13.5437 92.6821 12.5144 92.6821 11.117C92.6821 9.66061 93.5946 8.62232 95.0314 8.62232C96.3911 8.62232 97.3036 9.60259 97.3036 11.04C97.3046 12.5144 96.3631 13.5437 94.9533 13.5437ZM94.9924 9.38853C94.236 9.38853 93.7507 10.0967 93.7507 11.087C93.7507 12.0583 94.246 12.7665 94.9824 12.7665C95.7208 12.7665 96.215 12.0093 96.215 11.067C96.217 10.1067 95.7318 9.38853 94.9924 9.38853ZM102.943 13.4367H101.893V10.7279C101.893 9.89367 101.573 9.47556 100.942 9.47556C100.32 9.47556 99.894 10.0097 99.894 10.6309V13.4367H98.8444V10.0677C98.8444 9.65061 98.8344 9.20348 98.8054 8.71835H99.7279L99.7769 9.44655H99.806C100.087 8.94241 100.66 8.62132 101.301 8.62132C102.291 8.62132 102.943 9.37853 102.943 10.6109V13.4367ZM109.997 9.50557H108.844V11.7962C108.844 12.3794 109.046 12.6704 109.454 12.6704C109.639 12.6704 109.794 12.6504 109.919 12.6214L109.948 13.4176C109.745 13.4957 109.473 13.5347 109.135 13.5347C108.309 13.5347 107.814 13.0786 107.814 11.8842V9.50557H107.126V8.71935H107.814V7.85511L108.844 7.54402V8.71835H109.997V9.50557ZM115.548 13.4367H114.501V10.7479C114.501 9.90368 114.182 9.47656 113.549 9.47656C113.006 9.47656 112.5 9.84566 112.5 10.5929V13.4367H111.452V6.55475H112.5V9.38853H112.521C112.851 8.87439 113.329 8.62132 113.94 8.62132C114.938 8.62132 115.548 9.39754 115.548 10.6309V13.4367ZM121.236 11.3301H118.089C118.109 12.2233 118.7 12.7275 119.576 12.7275C120.041 12.7275 120.469 12.6494 120.847 12.5044L121.01 13.2326C120.564 13.4266 120.039 13.5237 119.428 13.5237C117.952 13.5237 117.078 12.5914 117.078 11.146C117.078 9.69962 117.973 8.61232 119.31 8.61232C120.515 8.61232 121.272 9.50557 121.272 10.8549C121.278 11.0142 121.266 11.1737 121.236 11.3301ZM120.274 10.5829C120.274 9.85466 119.907 9.34052 119.236 9.34052C118.634 9.34052 118.158 9.86467 118.09 10.5829H120.274Z" fill="white"/>
<defs>
<linearGradient id="paint0_linear_1_1826" x1="99.0124" y1="40.1062" x2="99.0124" y2="-104.153" gradientUnits="userSpaceOnUse">
<stop stop-color="#1A1A1A" stop-opacity="0.1"/>
<stop offset="0.123" stop-color="#212121" stop-opacity="0.151"/>
<stop offset="0.308" stop-color="#353535" stop-opacity="0.227"/>
<stop offset="0.532" stop-color="#575757" stop-opacity="0.318"/>
<stop offset="0.783" stop-color="#858585" stop-opacity="0.421"/>
<stop offset="1" stop-color="#B3B3B3" stop-opacity="0.51"/>
</linearGradient>
</defs>
</svg>
