<svg width="37" height="20" viewBox="0 0 37 20" fill="none" xmlns="http://www.w3.org/2000/svg">
<path d="M34.9188 0.231024H2.08127C1.05955 0.231024 0.231273 1.0593 0.231273 2.08102V17.3435C0.231273 18.3652 1.05955 19.1935 2.08127 19.1935H34.9188C35.9405 19.1935 36.7688 18.3652 36.7688 17.3435V2.08102C36.7688 1.0593 35.9405 0.231024 34.9188 0.231024Z" fill="#F1F2F6" stroke="#C3C3C3" stroke-width="0.454545"/>
<path d="M14.923 13.9319L16.2855 6.26739H18.4149L17.0949 13.9319H14.923ZM24.802 6.35249C24.3765 6.18229 23.6948 6.01209 22.8428 6.01209C20.7144 6.01209 19.1817 7.07584 19.1817 8.60949C19.1817 9.75927 20.2454 10.355 21.0964 10.7388C21.9493 11.1218 22.2046 11.3771 22.2046 11.7175C22.2046 12.229 21.5229 12.4843 20.9272 12.4843C20.0762 12.4843 19.6072 12.3567 18.8829 12.0588L18.5851 11.9302L18.2872 13.6766C18.7978 13.8894 19.7348 14.1021 20.7144 14.1021C22.9714 14.1021 24.4607 13.0384 24.4607 11.4196C24.4607 10.5252 23.9075 9.84437 22.6301 9.29029C21.8642 8.90734 21.3952 8.69459 21.3952 8.31164C21.3952 7.97032 21.7782 7.62992 22.6301 7.62992C23.3544 7.62992 23.865 7.75757 24.2488 7.92777L24.4616 8.01287L24.802 6.35249ZM28.4631 6.26739C27.9525 6.26739 27.5696 6.30994 27.3568 6.82147L24.1628 13.9319H26.4624L26.8879 12.6545H29.6129L29.8682 13.931H31.9125L30.1244 6.26739H28.4631ZM27.4845 11.3771C27.6121 10.9941 28.3355 9.12009 28.3355 9.12009C28.3355 9.12009 28.5057 8.65204 28.6343 8.35419L28.7619 9.07754C28.7619 9.07754 29.1874 10.9941 29.2725 11.4196H27.4845V11.3771ZM11.0056 11.6324L10.7929 10.5252C10.4099 9.24867 9.17505 7.84267 7.81253 7.16187L9.7282 13.9745H12.0278L15.4771 6.30994H13.1775L11.0056 11.6324Z" fill="#3C58BF"/>
<path d="M5.0875 6.26746L5.47045 6.35256C8.1955 6.99081 10.0695 8.60956 10.7929 10.5252L10.027 6.90663C9.89935 6.39511 9.51547 6.26839 9.04742 6.26839L5.0875 6.26746Z" fill="#FFBC00"/>
</svg>
