<svg width="37" height="20" viewBox="0 0 37 20" fill="none" xmlns="http://www.w3.org/2000/svg">
<path d="M34.9188 0.231024H2.08127C1.05955 0.231024 0.231273 1.0593 0.231273 2.08102V17.3435C0.231273 18.3652 1.05955 19.1935 2.08127 19.1935H34.9188C35.9405 19.1935 36.7688 18.3652 36.7688 17.3435V2.08102C36.7688 1.0593 35.9405 0.231024 34.9188 0.231024Z" fill="#F1F2F6" stroke="#C3C3C3" stroke-width="0.454545"/>
<path d="M7.35837 7.37848H8.28337L7.82087 6.20188L7.35837 7.37848Z" fill="#2FABF7"/>
<path d="M18.8367 6.3692C18.7525 6.32758 18.6258 6.32758 18.5 6.32758H17.6583V7.00005H18.5C18.6258 7.00005 18.7525 7.00005 18.8367 6.95843C18.92 6.91588 18.9625 6.79008 18.9625 6.66428C19.0041 6.49593 18.9209 6.41175 18.8367 6.3692Z" fill="#228FE0"/>
<path d="M27.8332 5.10837V5.61249L27.5816 5.10837H25.6058V5.61249L25.3533 5.10837H22.6625C22.2 5.10837 21.8207 5.19162 21.485 5.35997V5.10837H19.5933V5.35997C19.3834 5.19254 19.1308 5.10837 18.7941 5.10837H12.025L11.5625 6.15916L11.1 5.10837H8.95585V5.61249L8.70332 5.10837H6.89587L6.05412 7.08416L5.0875 9.27086H7.23165L7.48417 8.59746H8.07247L8.325 9.27086H10.7633V8.76581L10.9742 9.27086H12.1933L12.4033 8.76581V9.27086H18.2475V8.17659H18.3316C18.4158 8.17659 18.4158 8.17659 18.4158 8.30239V9.22739H21.4433V8.97579C21.6959 9.10159 22.0742 9.22739 22.5783 9.22739H23.84L24.0916 8.55491H24.6808L24.9334 9.22739H27.3717V8.59654L27.75 9.22739H29.7258V5.10837H27.8332ZM13.6234 8.63909H12.9093V6.32659L11.9001 8.63909H11.2693L10.2582 6.32659V8.63909H8.82912L8.53497 8.00824H7.10585L6.85332 8.68071H6.05412L7.31675 5.69759H8.36755L9.54507 8.51514V5.69666H10.68L11.605 7.71501L12.4468 5.69666H13.6234V8.64001V8.63909ZM16.4826 6.32659H14.8425V6.87234H16.4409V7.46156H14.8425V8.05079H16.4826V8.68071H14.1275V5.69759H16.4816V6.32844L16.4826 6.32659ZM19.6368 7.54574C19.7201 7.71409 19.7626 7.83989 19.7626 8.09241V8.68071H19.0476V8.30239C19.0476 8.13404 19.0476 7.88244 18.9218 7.71409C18.7951 7.58829 18.6693 7.58829 18.4167 7.58829H17.6601V8.68071H16.9451V5.69759H18.5425C18.9218 5.69759 19.1734 5.69759 19.3843 5.82339C19.5943 5.95011 19.7201 6.16009 19.7201 6.49679C19.7201 6.95929 19.4259 7.21089 19.2159 7.29506C19.4259 7.33761 19.5517 7.46341 19.6359 7.54759L19.6368 7.54574ZM20.8976 8.63909H20.1826V5.65504H20.8976V8.63909ZM29.18 8.63909H28.1718L26.825 6.40984V8.63909H25.3959L25.1433 8.00824H23.6707L23.4182 8.68071H22.6199C22.2832 8.68071 21.8624 8.59746 21.6108 8.34494C21.3582 8.09241 21.2315 7.75571 21.2315 7.20904C21.2315 6.78909 21.3157 6.36821 21.6108 6.03244C21.8207 5.78084 22.2 5.69666 22.6625 5.69666H23.335V6.32751H22.6625C22.41 6.32751 22.2832 6.36914 22.1167 6.49586C21.99 6.62166 21.9058 6.87419 21.9058 7.16834C21.9058 7.50504 21.9475 7.71409 22.1158 7.88336C22.2416 8.00916 22.41 8.05171 22.6209 8.05171H22.915L23.8816 5.73921H24.9334L26.11 8.55584V5.73921H27.1617L28.3808 7.79919V5.73921H29.0959V8.63909H29.18Z" fill="#0571C1"/>
<path d="M23.9233 7.37841H24.8908L24.4283 6.20089L23.9233 7.37841ZM16.7758 13.4335V11.0368L15.6824 12.2134L16.7758 13.4335Z" fill="#228FE0"/>
<path d="M12.2775 11.3306V11.8773H13.8334V12.4656H12.2775V13.0964H14.0008L14.8 12.214L14.0433 11.3306H12.2775Z" fill="#2FABF7"/>
<path d="M18.3742 11.3306H17.4908V12.0873H18.4158C18.6683 12.0873 18.8367 11.9615 18.8367 11.7089C18.7941 11.4564 18.6258 11.3306 18.3742 11.3306Z" fill="#228FE0"/>
<path d="M31.3668 12.0457V10.1531H29.6C29.2208 10.1531 28.9275 10.2373 28.7166 10.4057V10.1531H26.7834C26.4883 10.1531 26.11 10.2373 25.9416 10.4057V10.1531H22.5367V10.4057C22.2842 10.1957 21.8217 10.1531 21.6117 10.1531H19.3408V10.4057C19.1309 10.1957 18.6258 10.1531 18.3742 10.1531H15.8508L15.2625 10.7849L14.7168 10.1541H10.9307V14.2749H14.6307L15.22 13.6441L15.7657 14.2749H18.0375V13.3065H18.3317C18.6258 13.3065 19.0041 13.3065 19.2992 13.1807V14.3156H21.1908V13.2223H21.275C21.4008 13.2223 21.4008 13.2223 21.4008 13.349V14.3156H27.1192C27.4984 14.3156 27.8758 14.2324 28.0867 14.064V14.3156H29.8942C30.2734 14.3156 30.6508 14.274 30.9033 14.1057C31.3242 13.8531 31.5758 13.3906 31.5758 12.844C31.5758 12.5498 31.4935 12.2557 31.3668 12.0457ZM18.3317 12.7182H17.4908V13.7264H16.1459L15.3041 12.7598L14.4217 13.7273H11.6467V10.7424H14.4633L15.3051 11.709L16.1875 10.7424H18.4168C18.9625 10.7424 19.5934 10.9098 19.5934 11.709C19.5508 12.5507 18.9625 12.7182 18.3317 12.7182ZM22.5367 12.5498C22.62 12.6765 22.6625 12.844 22.6625 13.0965V13.6848H21.9475V13.3065C21.9475 13.139 21.9475 12.844 21.8217 12.7182C21.7375 12.5924 21.5692 12.5924 21.3166 12.5924H20.56V13.6848H19.8459V10.6998H21.4434C21.7791 10.6998 22.0742 10.6998 22.2842 10.8265C22.4942 10.9523 22.6625 11.1623 22.6625 11.499C22.6625 11.9615 22.3684 12.214 22.1584 12.2973C22.3684 12.3815 22.4942 12.4656 22.5367 12.5498ZM25.4375 11.3307H23.7975V11.8764H25.3959V12.4656H23.7975V13.0549H25.4375V13.6848H23.0834V10.6998H25.4375V11.3307ZM27.2043 13.6848H25.8584V13.0549H27.2033C27.3291 13.0549 27.4133 13.0549 27.4975 12.9707C27.54 12.9281 27.5817 12.844 27.5817 12.7598C27.5817 12.6765 27.54 12.5924 27.4984 12.5498C27.4559 12.5082 27.3717 12.4666 27.2459 12.4666C26.5725 12.424 25.7742 12.4666 25.7742 11.5416C25.7742 11.1207 26.0258 10.6582 26.7825 10.6582H28.17V11.3723H26.8666C26.7408 11.3723 26.6567 11.3723 26.5725 11.4148C26.4892 11.4565 26.4892 11.5406 26.4892 11.6248C26.4892 11.7515 26.5725 11.7932 26.6567 11.8348C26.7408 11.8773 26.825 11.8773 26.9092 11.8773H27.2875C27.6668 11.8773 27.9184 11.9606 28.0867 12.1299C28.2125 12.2557 28.2967 12.4656 28.2967 12.7598C28.2967 13.3906 27.9184 13.6848 27.2043 13.6848ZM30.8192 13.3906C30.6508 13.559 30.3567 13.6848 29.9367 13.6848H28.5908V13.0549H29.9367C30.0625 13.0549 30.1467 13.0549 30.2309 12.9707C30.2725 12.9281 30.3141 12.844 30.3141 12.7598C30.3141 12.6765 30.2725 12.5924 30.2309 12.5498C30.1883 12.5082 30.1041 12.4666 29.9783 12.4666C29.3059 12.424 28.5076 12.4666 28.5076 11.5416C28.5076 11.1207 28.7592 10.6582 29.5158 10.6582H30.9033V11.3723H29.6416C29.5158 11.3723 29.4317 11.3723 29.3475 11.4148C29.2642 11.4565 29.2642 11.5406 29.2642 11.6248C29.2642 11.7515 29.3059 11.7932 29.4317 11.8348C29.5158 11.8773 29.6 11.8773 29.6842 11.8773H30.0625C30.4418 11.8773 30.6934 11.9606 30.8617 12.1299C30.9033 12.1299 30.9033 12.1715 30.9033 12.1715C31.0291 12.3398 31.0717 12.5507 31.0717 12.7598C31.0717 13.0123 30.9875 13.2223 30.8192 13.3906Z" fill="#0571C1"/>
<path d="M21.7791 11.414C21.6958 11.3723 21.5691 11.3723 21.4433 11.3723H20.6016V12.0457H21.4433C21.5691 12.0457 21.6958 12.0457 21.7791 12.0032C21.8633 11.9616 21.9058 11.8348 21.9058 11.709C21.9474 11.5407 21.8633 11.4556 21.7791 11.414Z" fill="#228FE0"/>
<path d="M18.8358 6.36924C18.7525 6.32761 18.6258 6.32761 18.5 6.32761H17.6582V7.00009H18.5C18.6258 7.00009 18.7516 7.00009 18.8358 6.95846C18.9199 6.91591 18.9625 6.79011 18.9625 6.66339C19.0041 6.49596 18.9199 6.41271 18.8358 6.36924ZM23.9233 7.37841H24.8908L24.4283 6.20089L23.9233 7.37841ZM16.7758 13.4335V11.0368L15.6824 12.2134L16.7758 13.4335Z" fill="#228FE0"/>
<path d="M18.3742 11.3306H17.4908V12.0873H18.4158C18.6683 12.0873 18.8367 11.9615 18.8367 11.7089C18.7941 11.4564 18.6258 11.3306 18.3742 11.3306ZM21.7791 11.4139C21.6959 11.3722 21.5691 11.3722 21.4433 11.3722H20.6016V12.0456H21.4433C21.5691 12.0456 21.6959 12.0456 21.7791 12.0031C21.8633 11.9615 21.9058 11.8347 21.9058 11.7089C21.9475 11.5406 21.8633 11.4555 21.7791 11.4139Z" fill="#228FE0"/>
<path d="M18.0791 13.6017L17.4908 12.9709V13.685H16.1033L15.2625 12.7183L14.3375 13.685H11.5625V10.7425H14.3791L15.2625 11.7092L15.6834 11.205L14.6316 10.1533H10.9316V14.2742H14.6316L15.2625 13.6433L15.8092 14.2742H18.0791V13.6017ZM13.7066 9.22831L13.16 8.64001H12.9084V8.38749L12.2775 7.75664L11.8566 8.64001H11.2683L10.2592 6.32751V8.64001H8.82912L8.53497 8.00916H7.10585L6.8117 8.64001H6.05412L7.31582 5.69666H8.36662L9.54415 8.51421V5.69666H10.175L9.5867 5.10837H8.95585V5.61249L8.74587 5.10837H6.89587L6.05412 7.08416L5.0875 9.22831H6.05412H7.2742L7.5258 8.59746H8.11502L8.40917 9.22831H10.7633V8.72419L10.9742 9.22831H12.1933L12.4033 8.72419V9.22831H13.7066Z" fill="#2FABF7"/>
<path d="M11.7725 7.29417L11.1 6.6217L11.6041 7.71505L11.7725 7.29417Z" fill="#2FABF7"/>
<path d="M30.9033 14.0641C31.2826 13.8116 31.5342 13.3907 31.5767 12.9282L30.9875 12.3399C31.03 12.4657 31.0717 12.5925 31.0717 12.7608C31.0717 13.0124 30.9884 13.2233 30.8201 13.3907C30.6517 13.5591 30.3576 13.6858 29.9367 13.6858H28.5908V13.055H29.9367C30.0625 13.055 30.1467 13.055 30.2308 12.9708C30.2734 12.9282 30.315 12.845 30.315 12.7608C30.315 12.6766 30.2734 12.5925 30.2318 12.5499C30.1892 12.5083 30.105 12.4667 29.9783 12.4667C29.3058 12.4241 28.5076 12.4667 28.5076 11.5417C28.5076 11.1208 28.7592 10.7425 29.39 10.6583L28.9275 10.1958C28.8443 10.2374 28.8017 10.279 28.7592 10.279V10.0274H26.8259C26.5308 10.0274 26.1525 10.1116 25.9842 10.28V10.0274H22.5367V10.28C22.2842 10.07 21.8217 10.0274 21.6117 10.0274H19.3408V10.28C19.1308 10.07 18.6267 10.0274 18.3742 10.0274H15.8517L15.2625 10.6583L14.7167 10.0274H14.2542L15.515 11.2891L16.1459 10.6157H18.3742C18.9199 10.6157 19.5517 10.7841 19.5517 11.5833C19.5517 12.4241 18.9625 12.5915 18.3326 12.5915H17.4908V13.2233L18.1217 13.8532V13.2242H18.3326C18.6267 13.2242 19.005 13.2242 19.2992 13.0975V14.2325H21.1908V13.1391H21.275C21.4017 13.1391 21.4017 13.1391 21.4017 13.2649V14.2325H27.1201C27.4984 14.2325 27.8767 14.1483 28.0867 13.98V14.2325H29.8951C30.2308 14.2741 30.6092 14.2325 30.9033 14.0641ZM22.5367 12.549C22.6199 12.6757 22.6625 12.8441 22.6625 13.0957V13.6849H21.9484V13.3056C21.9484 13.1382 21.9484 12.8431 21.8217 12.7173C21.7384 12.5915 21.5701 12.5915 21.3175 12.5915H20.5609V13.6849H19.8459V10.699H21.4433C21.78 10.699 22.0742 10.699 22.2851 10.8257C22.4951 10.9515 22.6625 11.1615 22.6625 11.4982C22.6625 11.9607 22.3683 12.2132 22.1584 12.2974C22.3683 12.3806 22.4951 12.4648 22.5367 12.549ZM25.4375 11.3298H23.7993V11.8765H25.3968V12.4648H23.7993V13.054H25.4384V13.6849H23.0843V10.699H25.4384L25.4375 11.3298ZM27.2042 13.6849H25.8584V13.054H27.2033C27.33 13.054 27.4142 13.054 27.4984 12.9699C27.54 12.9273 27.5816 12.8441 27.5816 12.7599C27.5816 12.6757 27.54 12.5915 27.4984 12.549C27.4558 12.5074 27.3717 12.4657 27.2459 12.4657C26.5734 12.4232 25.7742 12.4657 25.7742 11.5407C25.7742 11.1199 26.0267 10.6574 26.7824 10.6574H28.1699V11.3724H26.8675C26.7408 11.3724 26.6576 11.3724 26.5734 11.414C26.4892 11.4566 26.4892 11.5398 26.4892 11.624C26.4892 11.7507 26.5725 11.7923 26.6576 11.8349C26.7408 11.8765 26.825 11.8765 26.9092 11.8765H27.2884C27.6658 11.8765 27.9183 11.9607 28.0867 12.129C28.2125 12.2548 28.2967 12.4648 28.2967 12.7599C28.2967 13.3898 27.9193 13.6849 27.2042 13.6849Z" fill="#228FE0"/>
<path d="M29.2217 11.6251C29.2217 11.7518 29.2642 11.7934 29.39 11.836C29.4742 11.8776 29.5584 11.8776 29.6425 11.8776H30.0209C30.2734 11.8776 30.4408 11.9202 30.6092 12.0034L29.9783 11.3735H29.6C29.4742 11.3735 29.39 11.3735 29.3058 11.4151C29.2642 11.4577 29.2226 11.5409 29.2226 11.6251H29.2217ZM27.75 9.10262L27.8342 9.22842H27.8767L27.75 9.10262ZM25.4375 6.79012L26.1525 8.51432V7.50515L25.4375 6.79012Z" fill="#228FE0"/>
<path d="M18.2484 8.17755H18.3317C18.4158 8.17755 18.4158 8.17755 18.4158 8.30335V9.22835H21.4434V8.97675C21.6959 9.10255 22.0742 9.22835 22.5783 9.22835H23.84L24.0926 8.55588H24.6809L24.9334 9.22835H27.3717V8.8084L26.7834 8.2201V8.6826H25.3533L25.1434 8.0092H23.6726L23.4201 8.6826H22.6209C22.2842 8.6826 21.8642 8.59843 21.6117 8.3459C21.3592 8.09338 21.2325 7.7576 21.2325 7.21093C21.2325 6.79005 21.3176 6.36918 21.6117 6.0334C21.8217 5.78088 22.2 5.6967 22.6625 5.6967H23.3359V6.32755H22.6625C22.4109 6.32755 22.2842 6.3701 22.1168 6.4959C21.99 6.6217 21.9059 6.87423 21.9059 7.16838C21.9059 7.50508 21.9484 7.71505 22.1158 7.8834C22.2426 8.0092 22.4109 8.05175 22.6209 8.05175H22.915L23.8826 5.73925H24.3025L23.7142 5.1491H22.6209C22.1584 5.1491 21.7791 5.23328 21.4434 5.40163V5.15003H19.5934V5.40255C19.3834 5.2342 19.1309 5.15003 18.7951 5.15003H12.0241L11.5616 6.20175L11.0991 5.15003H9.2491L9.83832 5.73925H10.6791L11.3951 7.2951L11.6467 7.5467L12.4033 5.6967H13.5809V8.6826H12.8658V6.3701L12.1517 8.05175L13.3709 9.2709H18.2059L18.2484 8.17755ZM20.1817 5.6967H20.8967V8.6826H20.1826L20.1817 5.6967ZM16.4817 6.32755H14.8435V6.87423H16.441V7.46253H14.8426V8.05175H16.4826V8.6826H14.1275V5.6967H16.4826L16.4817 6.32755ZM17.6592 8.64005H16.9451V5.65508H18.5426C18.9209 5.65508 19.1734 5.65508 19.3834 5.78088C19.5934 5.9076 19.7201 6.11758 19.7201 6.45335C19.7201 6.91585 19.425 7.16838 19.215 7.25255C19.3834 7.2951 19.5092 7.4209 19.5517 7.50508C19.635 7.67343 19.6775 7.79923 19.6775 8.05083V8.64005H18.9625V8.26173C18.9625 8.09338 18.9625 7.84085 18.8367 7.67343C18.7951 7.58925 18.6684 7.58925 18.4158 7.58925H17.6592V8.64005Z" fill="#228FE0"/>
</svg>
