<svg width="37" height="20" viewBox="0 0 37 20" fill="none" xmlns="http://www.w3.org/2000/svg">
<path d="M34.9188 0.231024H2.08127C1.05955 0.231024 0.231273 1.0593 0.231273 2.08102V17.3435C0.231273 18.3652 1.05955 19.1935 2.08127 19.1935H34.9188C35.9405 19.1935 36.7688 18.3652 36.7688 17.3435V2.08102C36.7688 1.0593 35.9405 0.231024 34.9188 0.231024Z" fill="#F1F2F6" stroke="#C3C3C3" stroke-width="0.454545"/>
<path fill-rule="evenodd" clip-rule="evenodd" d="M18.2632 8.48731C18.0606 9.05156 17.5047 8.98404 17.5047 8.98404H16.7444L17.0441 7.86849L17.8433 7.87034C18.2318 7.87034 18.3733 8.17929 18.2632 8.48731ZM19.8588 7.96561C19.9828 6.98789 19.2372 6.57996 18.3076 6.57996H15.8656L14.4226 11.8358H15.9757L16.4114 10.2161L17.649 10.2235C17.649 10.2235 19.5638 10.304 19.8598 7.96561H19.8588ZM10.9909 8.01741H12.4061L11.8234 10.2615C11.8234 10.2615 11.6781 10.761 12.1471 10.7998C12.5162 10.8303 12.7909 10.3891 12.8816 10.0903C13 9.69814 13.4597 8.01834 13.4597 8.01834H14.9184L13.8084 11.8358H12.5347L12.6919 11.2901C12.6919 11.2901 12.0417 12.0828 11.076 11.9875C10.2185 11.9043 10.1445 11.2808 10.2925 10.5047C10.3665 10.1236 10.9909 8.01741 10.9909 8.01741Z" fill="#2B2C6E"/>
<mask id="mask0_1_1897" style="mask-type:luminance" maskUnits="userSpaceOnUse" x="5" y="6" width="23" height="8">
<path d="M5.09122 6.58096H27.9896V13.4121H5.09122V6.58096Z" fill="white"/>
</mask>
<g mask="url(#mask0_1_1897)">
<path fill-rule="evenodd" clip-rule="evenodd" d="M21.164 11.0588C20.9216 11.1199 20.6275 11.1532 20.5692 10.933C20.4092 10.329 21.8226 10.1523 21.8226 10.1523C21.8318 10.7027 21.3508 11.0107 21.164 11.0588ZM23.3026 9.95344C23.4894 9.31796 23.7253 8.71671 23.5357 8.38279C23.2443 7.87311 22.7198 7.82779 21.9512 7.82779C21.102 7.82779 20.054 7.98966 19.7127 9.11816H21.1251C21.1251 9.11816 21.2546 8.69266 21.7847 8.72041C22.2546 8.74354 22.2287 9.06636 22.0557 9.24489C21.7523 9.55846 20.9142 9.38456 19.9855 9.70739C19.1743 9.98859 18.8903 11.0551 19.067 11.4806C19.2372 11.8932 19.5554 11.9459 19.9846 11.9884C20.6737 12.056 21.2019 11.6712 21.448 11.4464C21.448 11.6961 21.4544 11.8367 21.4544 11.8367H22.9418L22.9381 11.6961C22.9381 11.6961 22.8059 11.661 22.8207 11.4741C22.8318 11.3382 23.0889 10.6823 23.3026 9.95344ZM8.99192 8.47621C8.7912 8.94056 8.16867 8.88784 8.16867 8.88784L7.4444 8.88414L7.70895 7.89901L8.67465 7.90179C9.01505 7.90179 9.12142 8.17651 8.99192 8.47621ZM10.6384 7.80466C10.7624 6.82694 9.90212 6.57996 8.9725 6.57996H6.52957L5.0875 11.8367H6.63965L7.12435 10.0515L7.9957 10.0589C7.9957 10.0589 8.3546 10.0376 8.362 10.3752C8.3694 10.736 8.09467 11.3964 8.11225 11.8367H9.70787L9.70325 11.6952C9.70325 11.6952 9.57005 11.6601 9.58485 11.4732C9.59132 11.3964 9.67735 11.1513 9.78835 10.8211C9.8568 10.6749 9.95855 10.329 9.94837 10.0478C9.93727 9.69629 9.71712 9.53349 9.39892 9.41879C10.3896 9.18661 10.6384 7.80466 10.6384 7.80466ZM23.976 8.01741H25.419V10.3086L26.6659 8.01741H27.9896L25.3209 12.6498C25.3209 12.6498 25.074 13.0383 24.7659 13.2437C24.5134 13.4129 24.2035 13.4055 24.1092 13.412C23.5819 13.4074 22.9455 13.4065 22.9455 13.4065L23.2526 12.302H23.7484C23.7484 12.302 23.976 12.278 24.0629 12.166C24.1471 12.0597 24.1897 11.9533 24.1897 11.796C24.1897 11.5611 23.976 8.01741 23.976 8.01741Z" fill="#2B2C6E"/>
</g>
<path fill-rule="evenodd" clip-rule="evenodd" d="M29.8396 7.13492L28.1746 12.9273L31.2909 10.0311L29.8396 7.13492Z" fill="#197845"/>
<path fill-rule="evenodd" clip-rule="evenodd" d="M28.7721 7.13492L27.1071 12.9273L30.2235 10.0311L28.7721 7.13492Z" fill="#E06B2B"/>
<path fill-rule="evenodd" clip-rule="evenodd" d="M31.8718 6.08435C31.5555 6.08435 31.2983 6.3415 31.2983 6.65785C31.2983 6.9742 31.5555 7.23135 31.8718 7.23135C32.1891 7.23135 32.4453 6.9742 32.4453 6.65785C32.4453 6.3415 32.1891 6.08435 31.8718 6.08435ZM31.8718 7.2887C31.524 7.2887 31.241 7.00565 31.241 6.65785C31.241 6.31005 31.524 6.027 31.8718 6.027C32.2196 6.027 32.5027 6.31005 32.5027 6.65785C32.5027 7.00565 32.2196 7.2887 31.8718 7.2887Z" fill="#0A0B09"/>
<path fill-rule="evenodd" clip-rule="evenodd" d="M31.5666 6.89352V6.49855H31.4186V6.44582H31.7738V6.49855H31.6258V6.89352H31.5666ZM31.8635 6.89352V6.44582H31.9523L32.0587 6.7631L32.08 6.82877L32.104 6.75755L32.2104 6.44582H32.2899V6.89352H32.2335V6.5189L32.104 6.89352H32.0504L31.9209 6.51242V6.89352H31.8635Z" fill="#0A0B09"/>
</svg>
