<svg width="37" height="20" viewBox="0 0 37 20" fill="none" xmlns="http://www.w3.org/2000/svg">
<path d="M34.9188 0.231024H2.08124C1.05952 0.231024 0.231242 1.0593 0.231242 2.08103V17.3435C0.231242 18.3653 1.05952 19.1935 2.08124 19.1935H34.9188C35.9405 19.1935 36.7688 18.3653 36.7688 17.3435V2.08103C36.7688 1.0593 35.9405 0.231024 34.9188 0.231024Z" fill="#F1F2F6" stroke="#C3C3C3" stroke-width="0.454545"/>
<path d="M22.8975 6.54072H12.913C12.7317 7.4278 12.0454 8.1197 11.1657 8.30285V11.1222C12.0444 11.3054 12.7317 11.9973 12.9139 12.8844H22.8975C23.0788 11.9973 23.766 11.3054 24.6448 11.1222V8.30285C23.766 8.1197 23.0788 7.4278 22.8975 6.54072ZM17.9052 11.5255C16.9127 11.5255 16.108 10.7134 16.108 9.71255C16.108 8.7117 16.9127 7.89955 17.9052 7.89955C18.8978 7.89955 19.7025 8.71262 19.7025 9.71255C19.7025 10.7134 18.8978 11.5255 17.9052 11.5255Z" fill="#328F53"/>
<path d="M8.78749 4.16241V15.2624H27.023V4.16241H8.78749ZM25.1998 11.5624C24.1925 11.5624 23.3757 12.3903 23.3757 13.4124H12.4348C12.4348 12.3903 11.618 11.5624 10.6107 11.5624V7.86241C11.6189 7.86241 12.4348 7.03454 12.4348 6.01241H23.3748C23.3748 7.03454 24.1915 7.86241 25.1989 7.86241L25.1998 11.5624Z" fill="#328F53"/>
</svg>
