<svg width="14" height="12" viewBox="0 0 14 12" fill="none" xmlns="http://www.w3.org/2000/svg">
<path d="M0.998047 0.230469C0.724609 0.230469 0.489909 0.32845 0.293945 0.524414C0.0979818 0.720378 0 0.959636 0 1.24219C0 1.52474 0.0979818 1.764 0.293945 1.95996C0.489909 2.15592 0.724609 2.25391 0.998047 2.25391H13.002C13.2754 2.25391 13.5101 2.15592 13.7061 1.95996C13.902 1.764 14 1.52474 14 1.24219C14 0.959636 13.902 0.720378 13.7061 0.524414C13.5101 0.32845 13.2754 0.230469 13.002 0.230469H0.998047ZM0.998047 4.96094C0.724609 4.96094 0.489909 5.0612 0.293945 5.26172C0.0979818 5.46224 0 5.69922 0 5.97266C0 6.25521 0.0979818 6.49447 0.293945 6.69043C0.489909 6.88639 0.724609 6.98438 0.998047 6.98438H13.002C13.2754 6.98438 13.5101 6.88639 13.7061 6.69043C13.902 6.49447 14 6.25521 14 5.97266C14 5.69922 13.902 5.46224 13.7061 5.26172C13.5101 5.0612 13.2754 4.96094 13.002 4.96094H0.998047ZM0.998047 9.69141C0.724609 9.69141 0.489909 9.79167 0.293945 9.99219C0.0979818 10.1927 0 10.4342 0 10.7168C0 10.9902 0.0979818 11.2272 0.293945 11.4277C0.489909 11.6283 0.724609 11.7285 0.998047 11.7285H13.002C13.2754 11.7285 13.5101 11.6283 13.7061 11.4277C13.902 11.2272 14 10.9902 14 10.7168C14 10.4342 13.902 10.1927 13.7061 9.99219C13.5101 9.79167 13.2754 9.69141 13.002 9.69141H0.998047Z" fill="#373737"/>
</svg>
