<svg width="16" height="17" viewBox="0 0 16 17" fill="none" xmlns="http://www.w3.org/2000/svg">
<g clip-path="url(#clip0_1_36)">
<path d="M11.4219 6.08499C11.4323 6.13707 11.4375 6.18916 11.4375 6.24124C11.4375 6.29332 11.4375 6.34541 11.4375 6.39749C11.4375 7.12666 11.3203 7.82457 11.0859 8.49124C10.8516 9.15791 10.526 9.76207 10.1094 10.3037L10.125 10.2881L5.71875 16.335L1.3125 10.2881C0.90625 9.75687 0.585938 9.15791 0.351562 8.49124C0.117188 7.82457 0 7.12666 0 6.39749C0 6.34541 0 6.29072 0 6.23343C0 6.17614 0.00520833 6.12145 0.015625 6.06937V6.08499C0.046875 5.34541 0.197917 4.64749 0.46875 3.99124C0.729167 3.33499 1.08594 2.75426 1.53906 2.24905C1.99219 1.74385 2.52083 1.32457 3.125 0.991241C3.72917 0.657908 4.38021 0.449574 5.07812 0.366241C5.18229 0.355824 5.28646 0.348012 5.39062 0.342804C5.49479 0.337596 5.60417 0.334991 5.71875 0.334991C5.83333 0.334991 5.94531 0.337596 6.05469 0.342804C6.16406 0.348012 6.27083 0.355824 6.375 0.366241H6.35938C7.05729 0.449574 7.70833 0.657908 8.3125 0.991241C8.91667 1.32457 9.44531 1.74385 9.89844 2.24905C10.3516 2.75426 10.7083 3.33499 10.9688 3.99124C11.2396 4.64749 11.3906 5.34541 11.4219 6.08499ZM9.78125 6.05374C9.76042 5.51207 9.65625 5.00166 9.46875 4.52249C9.27083 4.04332 9.01302 3.61364 8.69531 3.23343C8.3776 2.85322 8.00521 2.54332 7.57812 2.30374C7.14062 2.05374 6.67708 1.89228 6.1875 1.81937H5.25C4.75 1.89228 4.28646 2.04853 3.85938 2.28812C3.43229 2.53812 3.0599 2.85062 2.74219 3.22562C2.42448 3.60062 2.16667 4.0277 1.96875 4.50687C1.78125 4.98603 1.67188 5.49645 1.64062 6.03812C1.63021 6.61103 1.70833 7.16832 1.875 7.70999C2.04167 8.25166 2.29688 8.74645 2.64062 9.19437L5.71875 13.5537L8.79688 9.20999C9.14062 8.77249 9.39583 8.2803 9.5625 7.73343C9.72917 7.18655 9.80729 6.62666 9.79688 6.05374H9.78125ZM5.71875 4.44437C5.17708 4.44437 4.71615 4.64489 4.33594 5.04593C3.95573 5.44697 3.76562 5.92874 3.76562 6.49124C3.76562 7.05374 3.95573 7.53291 4.33594 7.92874C4.71615 8.32457 5.17708 8.52249 5.71875 8.52249C6.26042 8.52249 6.72135 8.32457 7.10156 7.92874C7.48177 7.53291 7.67188 7.05374 7.67188 6.49124C7.67188 5.92874 7.48177 5.44697 7.10156 5.04593C6.72135 4.64489 6.26042 4.44437 5.71875 4.44437Z" fill="#25A541"/>
</g>
<defs>
<clipPath id="clip0_1_36">
<rect width="16" height="16.67" fill="white" transform="matrix(1 0 0 -1 0 16.67)"/>
</clipPath>
</defs>
</svg>
