<svg width="20" height="20" viewBox="0 0 20 20" fill="none" xmlns="http://www.w3.org/2000/svg">
<g clip-path="url(#clip0_1_106)">
<path d="M7.03124 16.7969C7.03124 17.2917 6.85872 17.7116 6.51366 18.0566C6.16861 18.4017 5.74869 18.5742 5.2539 18.5742C4.77213 18.5742 4.35872 18.4017 4.01367 18.0566C3.66861 17.7116 3.49609 17.2917 3.49609 16.7969C3.49609 16.3151 3.66861 15.9017 4.01367 15.5566C4.35872 15.2116 4.77213 15.0391 5.2539 15.0391C5.74869 15.0391 6.16861 15.2116 6.51366 15.5566C6.85872 15.9017 7.03124 16.3151 7.03124 16.7969ZM12.9297 16.7969C12.9297 17.2917 12.7572 17.7116 12.4121 18.0566C12.0671 18.4017 11.6536 18.5742 11.1719 18.5742C10.6771 18.5742 10.2572 18.4017 9.9121 18.0566C9.56705 17.7116 9.39452 17.2917 9.39452 16.7969C9.39452 16.3151 9.56705 15.9017 9.9121 15.5566C10.2572 15.2116 10.6771 15.0391 11.1719 15.0391C11.6536 15.0391 12.0671 15.2116 12.4121 15.5566C12.7572 15.9017 12.9297 16.3151 12.9297 16.7969ZM3.73046 11.3281L2.30468 5.97656H11.6406C11.9271 5.97656 12.168 5.87891 12.3633 5.68359C12.5586 5.48828 12.6562 5.2474 12.6562 4.96094C12.6562 4.6875 12.5586 4.44987 12.3633 4.24805C12.168 4.04622 11.9271 3.94531 11.6406 3.94531H0.976556C0.638014 3.94531 0.367832 4.07878 0.166009 4.3457C-0.0358141 4.61263 -0.0911526 4.90885 -6.78748e-06 5.23438L1.97265 12.6172C2.02473 12.8385 2.14192 13.0176 2.32421 13.1543C2.5065 13.291 2.71484 13.3594 2.94921 13.3594H13.3594C13.5937 13.3594 13.8021 13.291 13.9844 13.1543C14.1667 13.0176 14.2838 12.832 14.3359 12.5977L17.1289 2.03125H18.1055C18.3919 2.03125 18.6328 1.93359 18.8281 1.73828C19.0234 1.54297 19.1211 1.30208 19.1211 1.01562C19.1211 0.742188 19.0234 0.504557 18.8281 0.302734C18.6328 0.100912 18.3919 0 18.1055 0H16.3281C16.0937 0 15.8854 0.0716152 15.7031 0.214844C15.5208 0.358072 15.4036 0.540365 15.3516 0.761719L12.5781 11.3281H3.73046Z" fill="#25A541"/>
</g>
<defs>
<clipPath id="clip0_1_106">
<rect width="20" height="20" fill="white" transform="matrix(1 0 0 -1 0 20)"/>
</clipPath>
</defs>
</svg>
