<svg width="14" height="14" viewBox="0 0 14 14" fill="none" xmlns="http://www.w3.org/2000/svg">
<path d="M0.998047 1.23047C0.724609 1.23047 0.489909 1.32845 0.293945 1.52441C0.0979818 1.72038 0 1.95964 0 2.24219C0 2.52474 0.0979818 2.764 0.293945 2.95996C0.489909 3.15592 0.724609 3.25391 0.998047 3.25391H13.002C13.2754 3.25391 13.5101 3.15592 13.7061 2.95996C13.902 2.764 14 2.52474 14 2.24219C14 1.95964 13.902 1.72038 13.7061 1.52441C13.5101 1.32845 13.2754 1.23047 13.002 1.23047H0.998047ZM0.998047 5.96094C0.724609 5.96094 0.489909 6.0612 0.293945 6.26172C0.0979818 6.46224 0 6.69922 0 6.97266C0 7.25521 0.0979818 7.49447 0.293945 7.69043C0.489909 7.88639 0.724609 7.98438 0.998047 7.98438H13.002C13.2754 7.98438 13.5101 7.88639 13.7061 7.69043C13.902 7.49447 14 7.25521 14 6.97266C14 6.69922 13.902 6.46224 13.7061 6.26172C13.5101 6.0612 13.2754 5.96094 13.002 5.96094H0.998047ZM0.998047 10.6914C0.724609 10.6914 0.489909 10.7917 0.293945 10.9922C0.0979818 11.1927 0 11.4342 0 11.7168C0 11.9902 0.0979818 12.2272 0.293945 12.4277C0.489909 12.6283 0.724609 12.7285 0.998047 12.7285H13.002C13.2754 12.7285 13.5101 12.6283 13.7061 12.4277C13.902 12.2272 14 11.9902 14 11.7168C14 11.4342 13.902 11.1927 13.7061 10.9922C13.5101 10.7917 13.2754 10.6914 13.002 10.6914H0.998047Z" fill="#373737"/>
</svg>
