<svg width="12" height="16" viewBox="0 0 12 16" fill="none" xmlns="http://www.w3.org/2000/svg">
<path d="M11.4219 5.75C11.4323 5.80208 11.4375 5.85417 11.4375 5.90625C11.4375 5.95833 11.4375 6.01042 11.4375 6.0625C11.4375 6.79167 11.3203 7.48958 11.0859 8.15625C10.8516 8.82292 10.526 9.42708 10.1094 9.96875L10.125 9.95312L5.71875 16L1.3125 9.95312C0.90625 9.42188 0.585938 8.82292 0.351562 8.15625C0.117188 7.48958 0 6.79167 0 6.0625C0 6.01042 0 5.95573 0 5.89844C0 5.84115 0.00520833 5.78646 0.015625 5.73438V5.75C0.046875 5.01042 0.197917 4.3125 0.46875 3.65625C0.729167 3 1.08594 2.41927 1.53906 1.91406C1.99219 1.40885 2.52083 0.989583 3.125 0.65625C3.72917 0.322917 4.38021 0.114583 5.07812 0.03125C5.18229 0.020833 5.28646 0.0130205 5.39062 0.0078125C5.49479 0.00260448 5.60417 0 5.71875 0C5.83333 0 5.94531 0.00260448 6.05469 0.0078125C6.16406 0.0130205 6.27083 0.020833 6.375 0.03125H6.35938C7.05729 0.114583 7.70833 0.322917 8.3125 0.65625C8.91667 0.989583 9.44531 1.40885 9.89844 1.91406C10.3516 2.41927 10.7083 3 10.9688 3.65625C11.2396 4.3125 11.3906 5.01042 11.4219 5.75ZM9.78125 5.71875C9.76042 5.17708 9.65625 4.66667 9.46875 4.1875C9.27083 3.70833 9.01302 3.27865 8.69531 2.89844C8.3776 2.51823 8.00521 2.20833 7.57812 1.96875C7.14062 1.71875 6.67708 1.55729 6.1875 1.48438H5.25C4.75 1.55729 4.28646 1.71354 3.85938 1.95312C3.43229 2.20312 3.0599 2.51562 2.74219 2.89062C2.42448 3.26562 2.16667 3.69271 1.96875 4.17188C1.78125 4.65104 1.67188 5.16146 1.64062 5.70312C1.63021 6.27604 1.70833 6.83333 1.875 7.375C2.04167 7.91667 2.29688 8.41146 2.64062 8.85938L5.71875 13.2188L8.79688 8.875C9.14062 8.4375 9.39583 7.94531 9.5625 7.39844C9.72917 6.85156 9.80729 6.29167 9.79688 5.71875H9.78125ZM5.71875 4.10938C5.17708 4.10938 4.71615 4.3099 4.33594 4.71094C3.95573 5.11198 3.76562 5.59375 3.76562 6.15625C3.76562 6.71875 3.95573 7.19792 4.33594 7.59375C4.71615 7.98958 5.17708 8.1875 5.71875 8.1875C6.26042 8.1875 6.72135 7.98958 7.10156 7.59375C7.48177 7.19792 7.67188 6.71875 7.67188 6.15625C7.67188 5.59375 7.48177 5.11198 7.10156 4.71094C6.72135 4.3099 6.26042 4.10938 5.71875 4.10938Z" fill="#25A541"/>
</svg>
