<svg width="20" height="20" viewBox="0 0 20 20" fill="none" xmlns="http://www.w3.org/2000/svg">
<g clip-path="url(#clip0_1_57)">
<path opacity="0.01" d="M0 1.06066H19.2487V18.0448H0V1.06066Z" fill="white" fill-opacity="0.1"/>
<path d="M10.2584 17.3879C8.80704 17.0585 7.49982 16.2718 6.52921 15.1436C6.39462 14.9873 6.26732 14.8249 6.14769 14.6569L7.1712 14.6027C7.28331 14.597 7.3933 14.5699 7.49523 14.5229C8.33336 15.3494 9.3902 15.9191 10.5413 16.1651C13.829 16.9241 16.7323 15.236 17.4446 12.1507C18.1624 9.04122 16.2972 6.23302 13.0095 5.47399C9.72181 4.71496 6.92865 6.39424 6.19905 9.55452L6.1965 9.56555L6.18878 9.56377C6.17498 9.56059 6.1592 9.56101 6.14257 9.56007L5.00687 9.50124C5.02368 9.41332 5.03858 9.34878 5.05221 9.28975C5.48313 7.53729 6.59143 6.02724 8.13407 5.09072C9.67671 4.15421 11.5278 3.86766 13.2814 4.29393C15.0444 4.67953 16.5825 5.74853 17.5585 7.26652C18.5344 8.7845 18.8686 10.6276 18.4877 12.3916C18.0569 14.1442 16.9486 15.6544 15.4059 16.591C13.8633 17.5276 12.0121 17.8142 10.2584 17.3879ZM5.25657 12.9347C5.06665 12.3958 4.9476 11.8345 4.9024 11.265L6.05049 11.3255L6.05325 11.3261C6.09145 11.858 6.21185 12.3807 6.41018 12.8756L5.25657 12.9347Z" fill="#FFA238"/>
<path d="M13.9445 15.0977C13.8335 15.0725 13.7369 15.0047 13.6755 14.9089L11.3976 11.3663C11.3677 11.3201 11.3472 11.2683 11.3375 11.2141C11.3278 11.1599 11.329 11.1043 11.341 11.0505L12.2226 7.23159C12.2483 7.12025 12.3172 7.02369 12.4141 6.96314C12.511 6.90258 12.628 6.88301 12.7393 6.90871C12.8507 6.93442 12.9472 7.00329 13.0078 7.1002C13.0683 7.1971 13.0879 7.31408 13.0622 7.42542L12.2197 11.075L14.3994 14.4689C14.4296 14.5153 14.4501 14.5674 14.4597 14.622C14.4694 14.6766 14.4679 14.7325 14.4554 14.7865C14.443 14.8405 14.4197 14.8915 14.3872 14.9363C14.3546 14.9812 14.3133 15.019 14.2658 15.0475C14.1692 15.1053 14.0541 15.1233 13.9445 15.0977Z" fill="#FFA238"/>
<path d="M15.0385 2.28604L12.6455 1.73358C12.1715 1.62414 11.6985 1.91971 11.589 2.39376C11.4796 2.8678 11.7752 3.34081 12.2492 3.45025L14.6422 4.00271C15.1162 4.11215 15.5892 3.81658 15.6987 3.34254C15.8081 2.86849 15.5125 2.39548 15.0385 2.28604Z" fill="#FFA238"/>
<path d="M13.2031 2.85137L14.0629 3.04986L13.7156 4.55422L12.8558 4.35573L13.2031 2.85137Z" fill="#FFA238"/>
<path d="M9.51082 3.29042L7.40961 4.18233C6.95371 4.37585 6.74096 4.90219 6.93441 5.35794C7.12787 5.8137 7.65428 6.02628 8.11017 5.83276L10.2114 4.94085C10.6673 4.74734 10.88 4.221 10.6866 3.76524C10.4931 3.30949 9.96672 3.0969 9.51082 3.29042Z" fill="#FFA238"/>
<path d="M15.8266 6.22056L17.325 7.94417C17.6497 8.31772 18.2157 8.3573 18.5893 8.03258L18.5897 8.03221C18.9633 7.70749 19.0028 7.14143 18.6781 6.76788L17.1798 5.04427C16.8551 4.67072 16.289 4.63114 15.9155 4.95586L15.9151 4.95623C15.5415 5.28095 15.5019 5.84701 15.8266 6.22056Z" fill="#FFA238"/>
<path d="M4.4108 7.54918H0.671455C0.471659 7.54918 0.309692 7.71115 0.309692 7.91094V7.91151C0.309692 8.1113 0.471659 8.27327 0.671455 8.27327H4.4108C4.6106 8.27327 4.77257 8.1113 4.77257 7.91151V7.91094C4.77257 7.71115 4.6106 7.54918 4.4108 7.54918Z" fill="#FFA238"/>
<path d="M5.92466 10.017H2.18531C1.98552 10.017 1.82355 10.179 1.82355 10.3787V10.3793C1.82355 10.5791 1.98552 10.7411 2.18531 10.7411H5.92466C6.12446 10.7411 6.28642 10.5791 6.28642 10.3793V10.3787C6.28642 10.179 6.12446 10.017 5.92466 10.017Z" fill="#FFA238"/>
<path d="M7.44812 13.3719H3.70877C3.50898 13.3719 3.34701 13.5339 3.34701 13.7337V13.7343C3.34701 13.9341 3.50898 14.096 3.70877 14.096H7.44812C7.64792 14.096 7.80988 13.9341 7.80988 13.7343V13.7337C7.80988 13.5339 7.64792 13.3719 7.44812 13.3719Z" fill="#FFA238"/>
<path d="M2.9694 11.8926H0.71786C0.518063 11.8926 0.356097 12.0546 0.356097 12.2544V12.2549C0.356097 12.4547 0.518063 12.6167 0.71786 12.6167H2.9694C3.16919 12.6167 3.33116 12.4547 3.33116 12.2549V12.2544C3.33116 12.0546 3.16919 11.8926 2.9694 11.8926Z" fill="#FFA238"/>
</g>
<defs>
<clipPath id="clip0_1_57">
<rect width="19.19" height="19.19" fill="white" transform="scale(1.04221)"/>
</clipPath>
</defs>
</svg>
