<svg width="17" height="18" viewBox="0 0 17 18" fill="none" xmlns="http://www.w3.org/2000/svg">
<g clip-path="url(#clip0_1_98)">
<path fill-rule="evenodd" clip-rule="evenodd" d="M15.0993 17.9711H14.7582C14.4639 17.9432 14.1906 17.8062 13.9922 17.587C13.7937 17.3679 13.6844 17.0824 13.6857 16.7868C13.7426 15.6579 13.5654 12.9024 10.9804 12.9024C9.30437 12.9024 7.19305 12.9076 5.47064 12.9024C2.41285 12.8934 2.34985 15.5443 2.49244 16.7721C2.48739 17.0872 2.36357 17.3887 2.14574 17.6163C1.92792 17.844 1.63215 17.981 1.31764 18H0.97704C0.318111 18 0.0248849 17.3789 0.0248849 16.8157C-0.259341 13.6546 1.89272 10.8214 4.33564 10.8214H12.0595C13.9908 10.8214 16.1717 13.2302 16.1717 16.7863C16.1827 17.0846 16.0767 17.3754 15.8764 17.5968C15.676 17.8181 15.3972 17.9524 15.0993 17.9711ZM10.2892 8.46562C9.59231 8.86452 8.80325 9.07437 8.00025 9.07437C7.19726 9.07437 6.4082 8.86452 5.71129 8.46562C5.02353 8.0701 4.45178 7.5008 4.05331 6.81475C3.64648 6.12508 3.43461 5.33786 3.44033 4.53715C3.43412 3.73673 3.64551 2.94965 4.05189 2.26003C4.45021 1.57374 5.02199 1.00425 5.70987 0.608685C6.40678 0.209787 7.19583 -6.10352e-05 7.99883 -6.10352e-05C8.80183 -6.10352e-05 9.59088 0.209787 10.2878 0.608685C10.9756 1.0044 11.5473 1.57385 11.9458 2.26003C12.353 2.94945 12.5653 3.73649 12.5602 4.53715C12.5661 5.33769 12.3547 6.12484 11.9486 6.81475C11.5496 7.50087 10.9774 8.07015 10.2892 8.46562ZM10.3446 3.1364C10.1087 2.72571 9.76912 2.38415 9.3598 2.14587C8.94707 1.90664 8.47849 1.78065 8.00144 1.78065C7.52439 1.78065 7.0558 1.90664 6.64308 2.14587C6.23362 2.38413 5.89386 2.72569 5.65776 3.1364C5.41996 3.55236 5.29488 4.0232 5.29488 4.50234C5.29488 4.98148 5.41996 5.45231 5.65776 5.86828C5.89386 6.27899 6.23362 6.62054 6.64308 6.8588C7.0558 7.09804 7.52439 7.22402 8.00144 7.22402C8.47849 7.22402 8.94707 7.09804 9.3598 6.8588C9.76912 6.62053 10.1087 6.27897 10.3446 5.86828C10.5829 5.45247 10.7082 4.98157 10.7082 4.50234C10.7082 4.02311 10.5829 3.55221 10.3446 3.1364Z" fill="#25A541"/>
</g>
<defs>
<clipPath id="clip0_1_98">
<rect width="16.172" height="18" fill="white"/>
</clipPath>
</defs>
</svg>
