<svg width="85" height="17" viewBox="0 0 85 17" fill="none" xmlns="http://www.w3.org/2000/svg">
<path d="M27.1277 4.72222C24.7163 4.72222 22.8073 6.53074 22.8073 9.04256C22.8073 11.4539 24.7163 13.3629 27.1277 13.3629C29.539 13.3629 31.448 11.5544 31.448 9.04256C31.448 6.43026 29.539 4.72222 27.1277 4.72222ZM27.1277 11.5544C25.8215 11.5544 24.7163 10.4492 24.7163 8.94208C24.7163 7.43499 25.8215 6.32979 27.1277 6.32979C28.4338 6.32979 29.539 7.33452 29.539 8.94208C29.539 10.4492 28.4338 11.5544 27.1277 11.5544ZM17.7837 4.72222C15.3723 4.72222 13.4634 6.53074 13.4634 9.04256C13.4634 11.4539 15.3723 13.3629 17.7837 13.3629C20.195 13.3629 22.104 11.5544 22.104 9.04256C22.104 6.43026 20.195 4.72222 17.7837 4.72222ZM17.7837 11.5544C16.4775 11.5544 15.3723 10.4492 15.3723 8.94208C15.3723 7.43499 16.4775 6.32979 17.7837 6.32979C19.0898 6.32979 20.195 7.33452 20.195 8.94208C20.195 10.4492 19.0898 11.5544 17.7837 11.5544ZM6.63121 6.02837V7.83688H10.9515C10.8511 8.84161 10.4492 9.64539 9.94681 10.1478C9.34398 10.7506 8.33925 11.4539 6.63121 11.4539C3.91844 11.4539 1.90899 9.34397 1.90899 6.63121C1.90899 3.91844 4.01892 1.80851 6.63121 1.80851C8.03783 1.80851 9.14303 2.41135 9.94681 3.11466L11.253 1.80851C10.1478 0.803782 8.74114 0 6.73168 0C3.11466 0 0 3.01419 0 6.63121C0 10.2482 3.11466 13.2624 6.73168 13.2624C8.74114 13.2624 10.1478 12.6596 11.3534 11.3534C12.5591 10.1478 12.961 8.43972 12.961 7.13357C12.961 6.73168 12.961 6.32979 12.8605 6.02837H6.63121ZM52.2459 7.43499C51.844 6.43026 50.8393 4.72222 48.6289 4.72222C46.4185 4.72222 44.6099 6.43026 44.6099 9.04256C44.6099 11.4539 46.4185 13.3629 48.8298 13.3629C50.7388 13.3629 51.9445 12.1572 52.3463 11.4539L50.9397 10.4492C50.4374 11.1525 49.8345 11.6549 48.8298 11.6549C47.8251 11.6549 47.2222 11.253 46.7199 10.3487L52.4468 7.93735L52.2459 7.43499ZM46.4185 8.84161C46.4185 7.23404 47.7246 6.32979 48.6289 6.32979C49.3322 6.32979 50.0355 6.73168 50.2364 7.23404L46.4185 8.84161ZM41.6962 12.961H43.6052V0.401891H41.6962V12.961ZM38.682 5.62648C38.1797 5.12412 37.3759 4.62175 36.3712 4.62175C34.2612 4.62175 32.2518 6.53073 32.2518 8.94208C32.2518 11.3534 34.1608 13.1619 36.3712 13.1619C37.3759 13.1619 38.1797 12.6596 38.5816 12.1572H38.682V12.7601C38.682 14.3676 37.7778 15.2719 36.3712 15.2719C35.266 15.2719 34.4622 14.4681 34.2612 13.7648L32.6537 14.4681C33.156 15.5733 34.3617 16.9799 36.4716 16.9799C38.682 16.9799 40.4906 15.6738 40.4906 12.5591V4.92317H38.682V5.62648ZM36.4716 11.5544C35.1655 11.5544 34.0603 10.4492 34.0603 8.94208C34.0603 7.43499 35.1655 6.32979 36.4716 6.32979C37.7778 6.32979 38.7825 7.43499 38.7825 8.94208C38.7825 10.4492 37.7778 11.5544 36.4716 11.5544ZM60.987 0.401891H56.4657V12.961H58.3747V8.23877H60.987C63.0969 8.23877 65.1064 6.73168 65.1064 4.32033C65.1064 1.90898 63.0969 0.401891 60.987 0.401891ZM61.0875 6.43026H58.3747V2.10993H61.0875C62.4941 2.10993 63.2979 3.3156 63.2979 4.21986C63.1974 5.32506 62.3936 6.43026 61.0875 6.43026ZM72.6419 4.62175C71.2353 4.62175 69.8286 5.22459 69.3263 6.53074L71.0343 7.23404C71.4362 6.53073 72.039 6.32979 72.7423 6.32979C73.7471 6.32979 74.6513 6.93263 74.7518 7.93735V8.03783C74.4504 7.83688 73.6466 7.53546 72.8428 7.53546C71.0343 7.53546 69.2258 8.54019 69.2258 10.3487C69.2258 12.0567 70.7329 13.1619 72.3404 13.1619C73.6466 13.1619 74.2494 12.5591 74.7518 11.9563H74.8523V12.961H76.6608V8.1383C76.4598 5.9279 74.7518 4.62175 72.6419 4.62175ZM72.4409 11.5544C71.8381 11.5544 70.9338 11.253 70.9338 10.4492C70.9338 9.44445 72.039 9.14303 72.9433 9.14303C73.7471 9.14303 74.149 9.34397 74.6513 9.54492C74.4504 10.7506 73.4457 11.5544 72.4409 11.5544ZM82.9906 4.92317L80.8806 10.3487H80.7802L78.5698 4.92317H76.5603L79.8759 12.5591L77.9669 16.779H79.8759L85 4.92317H82.9906ZM66.1111 12.961H68.0201V0.401891H66.1111V12.961Z" fill="white"/>
</svg>
