<svg width="39" height="7" viewBox="0 0 39 7" fill="none" xmlns="http://www.w3.org/2000/svg">
<path d="M6.1 3.40013C6.1 4.20013 5.9 4.90013 5.4 5.40013C4.80001 6.00013 4.10001 6.30013 3.20001 6.30013C2.30001 6.30013 1.60001 6.00013 1.00001 5.40013C0.400008 4.80013 0.10001 4.10013 0.10001 3.20013C0.10001 2.30013 0.400008 1.60013 1.00001 1.00013C1.60001 0.400132 2.30001 0.100133 3.20001 0.100133C3.60001 0.100133 4.00001 0.200132 4.40001 0.400132C4.80001 0.600132 5.1 0.800132 5.3 1.10013L4.8 1.60013C4.4 1.10013 3.90001 0.900132 3.20001 0.900132C2.60001 0.900132 2.00001 1.10013 1.60001 1.60013C1.10001 2.00013 0.900009 2.60013 0.900009 3.30013C0.900009 4.00013 1.10001 4.60013 1.60001 5.00013C2.10001 5.40013 2.60001 5.70013 3.20001 5.70013C3.90001 5.70013 4.40001 5.50013 4.90001 5.00013C5.2 4.70013 5.4 4.30013 5.4 3.80013H3.20001V3.00013H6.1V3.40013ZM10.7 0.900132H8V2.80013H10.5V3.50013H8V5.40013H10.7V6.20013H7.2V0.200132H10.7V0.900132ZM14 6.20013H13.2V0.900132H11.5V0.200132H15.7V0.900132H14V6.20013ZM18.6 6.20013V0.200132H19.4V6.20013H18.6ZM22.8 6.20013H22V0.900132H20.3V0.200132H24.4V0.900132H22.7V6.20013H22.8ZM32.3 5.40013C31.7 6.00013 31 6.30013 30.1 6.30013C29.2 6.30013 28.5 6.00013 27.9 5.40013C27.3 4.80013 27 4.10013 27 3.20013C27 2.30013 27.3 1.60013 27.9 1.00013C28.5 0.400132 29.2 0.100133 30.1 0.100133C31 0.100133 31.7 0.400132 32.3 1.00013C32.9 1.60013 33.2 2.30013 33.2 3.20013C33.2 4.10013 32.9 4.80013 32.3 5.40013ZM28.5 4.90013C28.9 5.30013 29.5 5.60013 30.1 5.60013C30.7 5.60013 31.3 5.40013 31.7 4.90013C32.1 4.50013 32.4 3.90013 32.4 3.20013C32.4 2.50013 32.2 1.90013 31.7 1.50013C31.3 1.10013 30.7 0.800132 30.1 0.800132C29.5 0.800132 28.9 1.00013 28.5 1.50013C28.1 1.90013 27.8 2.50013 27.8 3.20013C27.8 3.90013 28 4.50013 28.5 4.90013ZM34.3 6.20013V0.200132H35.2L38.1 4.90013V0.200132H38.9V6.20013H38.1L35 1.30013V6.20013H34.3Z" fill="white" stroke="white" stroke-width="0.19993" stroke-miterlimit="10"/>
</svg>
